<svg width="1024pt" height="1024pt" viewBox="0 0 1024 1024" version="1.1" xmlns="http://www.w3.org/2000/svg">
<g id="#fcfdfdff">
</g>
<g id="#040403ff">
<path fill="#040403" opacity="1.00" d=" M 470.87 187.29 C 490.23 186.11 509.77 184.71 529.08 187.09 C 533.55 187.26 535.81 191.94 540.03 192.52 C 577.87 200.46 612.18 222.60 636.38 252.57 C 646.37 264.58 654.12 278.23 660.84 292.28 C 665.80 297.56 671.54 302.27 675.53 308.43 C 676.73 310.37 677.05 312.67 677.40 314.89 C 679.20 328.18 679.82 341.65 679.18 355.05 C 679.16 359.79 677.81 365.81 672.24 366.66 C 672.70 380.13 673.12 393.61 674.35 407.04 C 676.63 432.20 679.64 457.65 676.16 482.85 C 674.89 490.30 673.37 498.26 668.18 504.09 C 662.75 509.99 654.99 513.77 646.98 514.27 C 644.72 514.48 642.95 512.95 641.36 511.61 C 640.24 511.64 637.98 511.69 636.85 511.72 C 649.62 520.36 658.66 534.31 660.78 549.64 C 693.49 530.35 726.43 511.46 759.15 492.19 C 790.99 473.77 822.53 454.85 854.42 436.50 C 857.92 434.68 861.07 432.08 864.86 430.88 C 898.22 432.46 931.56 434.66 964.93 435.96 C 967.37 436.20 970.27 435.97 972.07 438.02 C 972.97 441.04 970.35 443.49 969.03 445.95 C 955.16 466.68 941.26 487.39 927.15 507.96 C 921.55 515.51 917.16 524.07 910.98 531.10 C 881.74 542.71 852.51 554.38 823.41 566.36 C 769.45 588.10 715.60 610.12 661.64 631.87 C 661.26 650.46 645.29 666.59 627.09 668.56 C 632.53 678.46 636.71 689.07 639.79 699.94 C 640.76 704.35 641.58 710.38 637.36 713.40 C 631.96 717.18 625.53 719.09 619.41 721.37 C 619.60 731.64 619.23 741.99 617.11 752.08 C 616.06 756.82 614.69 761.68 611.70 765.61 C 609.09 769.11 605.46 771.65 601.77 773.89 C 599.04 785.14 596.31 796.40 593.26 807.57 C 596.37 809.40 599.22 811.67 601.62 814.39 C 604.67 818.06 606.91 823.05 605.51 827.87 C 603.67 832.37 598.47 833.81 594.13 834.60 C 583.84 836.38 573.31 835.85 562.93 835.20 C 556.68 834.44 550.14 834.25 544.32 831.61 C 541.68 830.55 540.82 827.64 540.38 825.10 C 539.45 819.68 538.47 814.28 537.45 808.88 C 535.52 798.04 533.76 787.16 531.62 776.36 C 526.51 773.39 520.06 770.93 517.82 764.96 C 515.26 758.15 514.37 750.88 512.50 743.89 C 507.65 753.67 504.76 764.94 496.72 772.75 C 492.05 776.93 486.58 780.17 480.90 782.78 C 477.63 791.21 474.19 799.58 470.60 807.88 C 469.51 810.55 468.47 813.25 467.43 815.95 C 471.84 819.42 475.59 824.25 476.26 829.99 C 476.81 833.53 476.05 837.87 472.73 839.86 C 469.21 841.87 465.04 842.14 461.09 842.49 C 447.68 843.23 434.07 842.37 421.10 838.71 C 417.79 837.72 413.78 836.19 412.95 832.40 C 412.04 827.37 411.88 822.24 411.37 817.16 C 410.13 803.86 409.17 790.53 408.34 777.20 C 403.14 773.28 397.77 769.37 393.81 764.15 C 391.99 761.84 391.09 758.94 391.21 756.02 C 391.22 744.73 393.05 733.56 394.46 722.39 C 389.35 720.74 384.00 719.38 379.44 716.46 C 376.15 714.16 376.13 709.60 377.07 706.10 C 380.23 693.35 384.70 680.95 389.90 668.90 C 388.97 667.44 387.92 665.94 387.87 664.16 C 387.27 654.23 387.83 644.09 390.75 634.54 C 391.27 632.26 393.20 630.96 395.19 630.06 C 394.26 625.82 393.61 621.52 393.17 617.20 C 389.41 618.46 385.52 620.39 381.46 619.74 C 376.11 617.64 373.25 611.82 372.16 606.49 C 366.30 602.33 362.11 595.66 360.57 588.68 C 359.06 587.46 357.49 586.16 356.90 584.24 C 351.40 566.13 353.25 545.10 364.72 529.62 C 367.57 525.44 371.48 522.22 375.13 518.78 C 364.36 517.27 353.60 514.53 344.02 509.27 C 338.98 506.41 333.94 502.14 333.02 496.09 C 331.89 490.46 335.24 485.38 338.32 481.00 C 335.14 456.76 331.76 432.31 333.54 407.79 C 326.79 398.83 324.57 386.59 328.17 375.92 C 328.64 374.30 329.48 372.77 329.57 371.07 C 328.08 341.02 335.11 310.71 348.80 283.98 C 367.12 247.35 399.00 217.97 436.45 201.63 C 443.90 198.31 451.75 196.08 459.49 193.58 C 461.87 189.58 466.23 187.24 470.87 187.29 M 497.58 195.24 C 493.50 195.01 489.43 195.50 485.36 195.67 C 480.23 196.16 475.07 196.23 469.94 196.66 C 476.42 199.77 482.13 204.21 487.26 209.22 C 495.87 218.33 502.17 229.41 506.28 241.21 C 508.82 239.98 511.32 238.64 513.79 237.24 C 522.41 232.78 531.09 228.44 539.66 223.90 L 539.47 223.60 C 542.61 222.57 545.63 223.81 548.38 225.29 C 542.69 214.96 536.95 204.47 528.97 195.69 C 518.52 195.14 508.05 195.12 497.58 195.24 M 391.82 242.87 C 384.62 249.93 377.47 257.24 372.04 265.77 C 367.50 271.20 364.01 277.40 360.34 283.42 C 347.16 307.54 339.35 334.77 339.19 362.33 C 343.62 359.94 348.66 359.94 353.50 360.79 C 354.89 358.13 356.38 355.52 357.88 352.92 C 370.91 331.62 388.45 313.36 408.19 298.17 C 422.09 287.28 437.46 278.50 452.78 269.79 C 469.87 260.44 487.06 251.27 504.29 242.17 C 494.59 226.38 482.98 210.29 465.76 202.19 C 438.16 209.13 412.35 223.14 391.82 242.87 M 542.69 203.05 C 543.89 205.03 544.94 207.12 546.35 208.97 C 548.74 214.94 551.08 220.93 552.88 227.10 C 557.77 229.17 562.49 231.60 567.22 234.02 C 574.26 237.65 581.35 241.16 588.33 244.91 L 588.29 245.10 C 590.15 246.11 592.03 247.09 593.96 247.98 C 597.48 249.84 600.96 251.80 604.57 253.51 L 604.59 253.79 C 608.86 255.73 612.72 258.44 616.94 260.50 C 624.45 265.80 632.61 270.20 640.21 275.42 C 627.66 254.82 610.47 237.00 590.02 224.14 C 575.52 214.59 559.49 207.43 542.69 203.05 M 531.47 238.37 C 528.65 239.84 525.84 241.31 523.05 242.83 C 499.44 255.15 475.89 267.61 452.63 280.62 C 440.78 287.38 428.80 294.13 417.93 302.40 C 412.68 305.55 408.26 309.85 403.51 313.66 C 386.12 327.79 371.15 344.92 359.51 364.06 C 365.06 368.53 368.49 375.19 369.71 382.14 C 381.41 373.20 394.72 365.69 409.46 363.45 C 435.22 359.78 461.40 361.43 487.13 364.51 C 510.79 367.07 533.93 372.81 557.11 377.97 C 559.63 354.09 558.37 329.98 555.82 306.15 C 554.84 297.43 553.85 288.69 551.95 280.12 C 551.03 274.74 549.88 269.40 549.07 264.01 L 548.92 264.06 C 548.72 262.65 548.53 261.25 548.34 259.85 C 546.72 250.67 544.89 241.49 542.29 232.53 C 538.64 234.40 535.11 236.49 531.47 238.37 M 543.51 232.75 C 546.16 239.60 548.47 246.57 550.80 253.53 C 551.73 256.44 552.60 259.38 553.58 262.28 L 552.72 262.67 L 553.83 262.54 C 554.23 264.45 554.66 266.37 555.13 268.27 C 557.79 278.89 559.89 289.66 561.18 300.53 C 563.58 326.15 563.60 352.27 558.06 377.51 C 575.43 371.24 592.99 365.33 611.00 361.14 C 620.98 358.55 631.21 357.24 641.34 355.50 C 649.36 355.22 657.41 354.23 665.43 355.26 C 666.95 355.48 668.47 355.69 670.00 355.91 C 670.42 347.33 670.66 338.69 669.84 330.13 C 669.49 324.58 669.24 318.98 668.24 313.51 C 666.90 311.28 664.98 309.49 663.29 307.54 C 654.77 298.77 645.35 290.86 635.20 284.06 C 619.60 272.79 602.99 262.87 585.79 254.23 L 585.87 254.16 C 575.30 248.68 564.86 242.94 554.07 237.89 C 550.57 236.13 547.08 234.37 543.51 232.75 M 611.46 370.41 C 613.28 373.10 615.26 375.83 615.79 379.13 C 611.68 376.74 607.71 373.82 602.95 372.87 C 588.40 376.68 574.19 381.76 560.06 386.91 C 557.12 388.31 553.98 386.98 551.05 386.36 C 528.85 380.94 506.47 376.12 483.82 373.00 C 485.21 375.12 486.68 377.30 486.64 379.96 C 482.91 377.30 479.08 374.56 474.52 373.60 C 466.24 371.34 457.68 374.83 451.11 379.78 C 451.66 376.19 453.69 373.14 456.23 370.64 C 440.20 370.12 424.03 369.78 408.17 372.54 C 405.93 387.23 405.52 402.19 406.90 416.99 C 408.11 427.27 409.89 437.75 414.81 446.98 C 419.10 455.18 425.59 462.19 428.54 471.07 C 430.81 477.60 431.43 484.59 431.12 491.47 C 430.18 497.60 428.45 503.72 424.57 508.68 C 457.95 533.77 502.45 543.92 543.27 534.63 C 590.28 525.86 631.32 491.55 649.48 447.44 C 650.74 444.07 652.80 440.67 652.13 436.93 C 649.44 412.76 648.64 388.44 648.27 364.14 C 635.83 365.08 623.60 367.64 611.46 370.41 M 657.32 363.55 C 657.79 384.82 658.43 406.08 660.08 427.28 L 660.50 428.33 C 660.42 434.96 661.53 441.55 661.67 448.18 C 662.10 454.64 662.42 461.12 662.07 467.60 C 661.52 472.59 661.30 477.62 660.46 482.58 C 659.06 489.87 657.97 497.92 652.69 503.57 C 660.63 501.44 665.26 493.36 666.41 485.62 L 666.47 485.64 C 667.32 480.81 668.10 475.96 668.29 471.05 C 668.60 465.08 668.97 459.09 668.62 453.12 C 668.55 450.04 668.32 446.98 668.04 443.92 C 667.94 438.75 667.34 433.59 667.11 428.42 C 664.96 406.94 663.21 385.40 663.32 363.79 C 661.31 363.71 659.31 363.63 657.32 363.55 M 344.18 368.26 C 340.63 370.05 338.77 373.77 337.01 377.14 C 334.60 384.50 335.07 393.04 339.21 399.71 C 341.93 404.16 347.21 406.89 352.44 406.03 L 352.31 405.79 C 357.08 404.27 359.59 399.71 361.00 395.23 C 362.20 390.39 362.11 385.34 361.17 380.47 C 359.95 375.36 356.88 370.48 351.96 368.29 C 349.60 367.01 346.60 367.24 344.18 368.26 M 388.39 380.18 C 388.07 384.67 387.76 389.17 387.76 393.68 C 387.47 402.69 388.44 411.66 388.97 420.63 L 389.22 420.49 C 389.33 421.40 389.54 423.24 389.65 424.16 C 390.21 428.26 391.00 432.32 391.86 436.37 C 393.28 442.24 395.13 448.02 397.59 453.54 L 397.74 453.46 C 400.80 459.36 404.57 464.87 408.05 470.53 C 411.26 477.94 412.89 486.72 409.40 494.34 C 406.54 499.41 400.44 501.22 395.05 502.07 C 384.35 503.56 373.38 502.49 363.01 499.56 C 355.94 497.34 349.05 494.12 343.63 488.97 C 342.12 491.76 341.32 495.57 344.03 497.93 C 349.75 502.92 357.24 505.23 364.43 507.22 C 375.69 510.19 387.45 510.98 399.02 509.87 C 405.88 509.13 413.26 507.33 418.00 501.94 C 419.37 499.48 420.49 496.88 421.29 494.18 C 422.35 487.94 422.41 481.47 420.49 475.38 C 417.44 465.56 409.57 458.33 405.43 449.02 C 402.07 441.88 400.14 434.18 398.67 426.46 C 398.38 424.22 398.08 421.98 397.78 419.75 C 396.42 407.65 396.95 395.47 397.63 383.34 C 398.39 380.74 398.51 378.01 398.80 375.34 C 395.27 376.82 391.77 378.37 388.39 380.18 M 370.49 392.61 C 370.36 393.61 370.24 394.62 370.13 395.63 C 368.65 401.24 366.41 406.98 361.76 410.73 C 356.58 415.33 348.96 416.22 342.60 413.73 C 342.21 430.54 342.63 447.43 345.34 464.05 C 346.35 470.99 348.25 477.99 347.01 485.04 C 350.68 488.51 355.10 491.04 359.74 492.99 C 370.60 497.16 382.39 499.12 394.01 498.25 C 397.63 497.79 401.75 497.32 404.37 494.49 C 407.41 490.70 407.17 485.45 406.64 480.89 C 405.76 472.83 399.35 467.16 395.67 460.34 C 389.53 450.56 386.47 439.24 384.67 427.93 C 382.94 415.95 382.00 403.81 382.84 391.71 C 383.26 388.81 383.48 385.89 383.71 382.98 C 379.28 386.16 374.84 389.33 370.49 392.61 M 775.83 492.78 C 706.21 534.01 635.86 573.98 565.87 614.55 C 566.38 615.16 566.90 615.77 567.43 616.38 C 575.29 618.39 583.55 619.19 591.15 622.31 C 618.98 608.19 647.13 594.71 675.28 581.25 C 711.44 563.32 747.78 545.75 784.07 528.07 C 813.92 513.48 843.73 498.80 874.06 485.25 C 854.91 495.94 835.20 505.58 815.77 515.74 C 781.32 533.34 746.99 551.17 712.43 568.54 C 677.27 586.59 641.56 603.54 606.38 621.54 C 602.42 623.35 598.51 625.23 594.63 627.17 C 593.08 633.65 590.65 639.89 587.88 645.93 C 587.12 647.80 586.23 649.85 586.81 651.90 C 588.21 651.40 589.59 650.86 590.97 650.33 C 596.01 648.28 601.02 646.19 606.07 644.20 C 646.50 628.44 686.65 612.01 726.88 595.76 C 785.00 572.37 843.02 548.76 901.14 525.38 C 902.94 524.51 905.18 524.15 906.54 522.55 C 924.12 496.52 941.71 470.48 959.46 444.56 C 928.32 443.55 897.21 441.64 866.13 439.63 C 836.15 457.55 805.94 475.08 775.83 492.78 M 624.14 502.14 C 630.39 502.24 636.76 502.92 642.96 501.84 C 647.70 499.63 650.02 494.33 651.47 489.59 C 653.61 480.83 653.79 471.72 653.45 462.76 C 645.24 476.95 635.94 490.66 624.14 502.14 M 610.94 514.13 L 610.85 514.11 C 607.47 516.44 603.88 518.51 600.82 521.27 C 610.75 528.50 614.76 540.89 616.58 552.53 C 620.64 554.13 624.97 552.67 628.44 550.39 C 633.75 547.01 639.60 544.37 645.91 543.66 L 645.84 543.49 C 647.23 543.41 648.63 543.33 650.03 543.26 C 644.91 527.70 630.83 515.95 615.02 512.40 C 613.32 511.72 612.10 513.14 610.94 514.13 M 397.45 519.83 C 394.84 519.81 392.35 520.94 389.86 521.63 C 379.59 524.97 371.40 533.30 367.15 543.11 C 361.89 554.81 361.22 568.69 366.04 580.66 C 369.96 578.28 373.51 575.18 377.96 573.81 C 379.21 573.27 380.72 573.18 381.80 572.33 C 393.84 568.68 406.54 568.45 419.02 568.82 C 423.44 569.07 427.70 567.66 431.66 565.82 L 431.33 565.26 L 432.99 565.36 C 430.83 557.06 429.95 548.14 432.89 539.91 C 428.87 533.51 423.47 528.04 417.55 523.38 C 414.57 521.23 411.64 518.81 408.09 517.67 C 404.50 518.14 400.99 519.09 397.45 519.83 M 420.85 518.92 C 428.19 524.52 434.75 531.18 439.89 538.87 C 437.41 545.04 437.00 551.93 438.42 558.41 C 439.43 563.32 440.96 568.11 441.96 573.03 C 438.53 577.36 433.63 580.05 428.98 582.85 C 418.77 588.89 407.86 593.63 396.86 598.04 C 391.41 600.55 385.68 602.31 380.04 604.35 C 380.99 606.61 382.04 608.82 383.19 611.00 C 389.84 609.52 396.06 606.62 402.43 604.27 C 419.62 596.68 436.67 588.03 451.19 575.97 C 448.60 570.12 445.89 564.29 444.43 558.02 C 443.60 552.25 445.06 546.64 446.62 541.16 C 445.11 537.36 442.79 533.97 440.78 530.44 L 440.88 530.25 C 434.16 526.54 427.48 522.78 420.85 518.92 M 592.01 527.07 C 594.26 531.01 598.27 533.60 600.27 537.72 C 605.28 547.38 605.90 558.49 607.41 569.07 C 611.48 570.65 615.75 571.63 619.96 572.79 C 622.46 571.43 624.91 569.95 627.26 568.33 C 622.50 567.25 617.43 567.12 613.00 564.94 C 610.69 563.89 610.79 561.04 610.46 558.93 C 609.69 551.28 608.50 543.55 605.57 536.39 C 603.58 531.43 599.73 527.60 595.81 524.12 C 594.55 525.11 593.27 526.08 592.01 527.07 M 571.64 536.80 C 566.77 538.42 561.98 540.27 557.06 541.73 C 549.13 543.91 541.10 545.80 532.91 546.67 C 505.92 549.59 477.96 546.30 453.13 535.00 C 454.98 539.97 460.28 541.46 464.63 543.53 C 477.10 549.09 490.51 552.10 503.87 554.64 C 505.22 554.80 506.62 555.29 508.00 555.01 C 516.74 556.79 525.69 557.13 534.56 557.85 C 539.97 556.70 545.15 554.75 550.41 553.07 L 550.39 552.85 C 559.76 549.86 568.68 545.36 576.56 539.46 C 579.20 537.00 582.61 534.89 583.76 531.29 C 579.67 533.01 575.73 535.06 571.64 536.80 M 588.61 536.47 C 587.67 537.93 586.71 539.38 585.68 540.79 C 582.20 543.63 579.07 546.91 575.23 549.29 C 563.89 556.58 550.96 560.78 538.10 564.52 C 538.40 565.85 538.69 567.17 539.00 568.52 C 543.11 566.25 547.13 563.02 551.99 562.79 C 555.35 562.56 557.30 566.00 556.84 569.00 C 556.18 581.17 559.78 593.48 567.00 603.31 C 573.80 599.65 580.83 596.32 587.16 591.86 L 587.36 591.56 C 591.59 589.13 595.78 586.64 599.93 584.08 C 597.77 570.63 597.11 556.87 593.23 543.74 C 592.43 540.90 590.37 538.73 588.61 536.47 M 453.82 546.45 C 450.76 552.84 453.71 559.70 456.36 565.64 C 458.54 570.09 459.37 575.25 462.83 579.00 C 467.19 584.17 470.29 590.78 476.36 594.23 C 476.95 595.13 477.97 595.67 478.78 596.40 C 487.15 594.97 490.51 605.77 498.24 606.67 C 508.60 608.26 518.88 610.38 529.00 613.14 C 526.32 607.70 523.03 602.20 522.72 596.00 C 522.67 588.08 527.48 581.37 532.32 575.54 C 533.19 574.61 534.02 573.64 534.80 572.63 C 534.98 569.95 534.04 567.34 533.50 564.76 C 532.67 564.78 531.01 564.82 530.18 564.85 C 506.44 563.46 482.56 559.33 460.71 549.65 C 458.43 548.54 456.13 547.47 453.82 546.45 M 645.27 548.46 L 645.42 548.52 L 644.46 548.56 C 639.32 550.08 634.36 552.12 629.61 554.61 C 625.66 556.72 621.11 556.74 616.75 556.65 C 616.89 557.47 617.15 559.10 617.29 559.92 C 623.94 562.04 630.96 563.22 637.95 562.69 C 642.19 561.02 645.88 558.22 649.80 555.91 C 650.74 555.35 651.68 554.80 652.64 554.26 C 652.20 552.41 651.74 550.57 651.29 548.75 C 649.28 548.61 647.27 548.20 645.27 548.46 M 433.76 568.23 C 429.27 571.03 424.20 572.92 418.89 573.28 C 406.43 574.30 393.60 574.07 381.73 578.57 C 377.29 580.81 372.33 582.86 369.26 586.93 C 370.63 591.22 373.01 595.13 375.79 598.65 C 380.49 596.81 385.23 595.07 389.98 593.38 C 395.14 591.52 400.34 589.72 405.31 587.37 C 415.45 582.46 425.78 577.83 435.25 571.68 C 434.75 570.52 434.26 569.37 433.76 568.23 M 546.38 573.03 C 546.81 579.05 547.07 585.20 549.20 590.92 C 551.62 597.63 555.01 603.99 559.09 609.84 C 559.90 609.04 560.72 608.25 561.54 607.47 C 558.30 602.20 555.15 596.82 552.98 591.01 C 550.44 584.68 549.95 577.78 549.66 571.04 C 548.56 571.70 547.46 572.35 546.38 573.03 M 536.97 582.11 C 534.95 585.02 533.28 588.15 531.68 591.30 C 531.03 593.69 530.06 596.27 531.40 598.63 C 536.15 609.95 542.06 620.74 546.91 632.02 C 547.99 628.80 549.82 624.32 554.10 626.03 C 555.91 626.54 557.68 627.20 559.45 627.86 C 564.50 630.08 569.91 631.70 574.43 634.98 C 574.51 641.32 573.25 647.56 572.41 653.81 C 572.17 656.19 571.31 658.43 569.95 660.39 C 567.65 660.44 565.35 660.25 563.13 659.64 C 566.43 664.89 569.24 670.41 572.32 675.79 C 575.50 681.43 578.70 687.13 582.77 692.19 C 585.06 695.12 588.80 696.24 592.37 696.48 C 597.65 696.57 602.88 695.82 608.03 694.70 C 602.30 691.02 596.87 686.67 593.02 680.99 C 588.78 674.73 584.94 668.18 581.53 661.44 C 581.04 657.49 580.25 653.59 578.57 649.94 C 579.15 648.17 580.14 646.51 580.36 644.65 C 582.99 639.59 584.69 634.11 586.54 628.73 C 584.71 628.07 582.84 627.49 580.94 627.08 C 578.12 626.22 575.25 625.36 572.31 625.13 C 569.10 624.25 565.58 624.32 562.68 622.53 C 553.87 613.12 547.49 601.58 543.30 589.44 C 543.00 585.14 542.40 580.86 542.01 576.57 C 540.28 578.37 538.63 580.24 536.97 582.11 M 608.38 578.07 C 608.50 581.40 611.37 576.56 608.38 578.07 M 417.93 607.13 C 414.62 608.71 411.28 610.22 407.93 611.69 C 413.17 619.15 419.86 625.51 426.97 631.18 C 427.38 627.73 428.18 624.35 429.31 621.07 C 434.39 606.96 445.97 595.68 459.87 590.26 C 458.44 588.18 456.94 586.14 455.33 584.21 C 443.94 593.44 431.14 600.83 417.93 607.13 M 436.67 627.46 C 436.23 630.90 434.96 634.45 435.73 637.90 C 437.58 639.42 439.79 640.39 441.92 641.48 C 442.27 639.38 442.63 637.29 443.05 635.21 C 447.56 621.09 456.26 607.92 469.03 600.02 C 467.98 599.01 466.95 598.02 465.92 597.03 C 452.27 601.94 440.45 613.23 436.67 627.46 M 472.28 608.44 C 463.42 614.96 456.62 623.96 452.57 634.18 C 450.84 639.03 449.90 644.10 449.45 649.23 C 453.97 651.92 459.09 653.31 464.04 654.98 C 475.04 658.15 486.20 660.88 497.51 662.56 C 501.50 666.02 504.19 670.98 508.99 673.49 C 511.34 674.10 513.54 672.23 515.71 671.50 C 523.15 666.67 529.78 660.35 534.32 652.69 C 534.80 651.49 535.06 650.26 535.12 649.01 C 533.52 647.11 531.20 646.09 529.17 644.77 C 524.96 642.10 520.88 639.22 516.42 636.98 C 515.83 638.16 515.25 639.35 514.66 640.55 C 510.69 647.13 505.69 652.99 499.90 658.04 C 499.61 657.87 499.03 657.54 498.74 657.38 C 504.04 651.36 507.20 643.87 510.31 636.57 C 510.72 635.30 511.14 634.05 511.57 632.80 C 501.17 622.98 490.53 613.34 478.94 604.93 C 476.67 606.00 474.44 607.16 472.28 608.44 M 504.77 614.03 C 509.60 618.29 514.60 622.35 518.97 627.11 C 524.99 627.17 531.11 627.23 536.92 629.00 C 535.00 625.25 533.09 621.50 531.28 617.71 C 522.45 616.44 513.62 615.12 504.77 614.03 M 403.07 619.96 C 403.34 624.10 403.95 628.20 404.60 632.30 C 409.04 633.74 413.56 634.98 418.12 636.01 C 412.91 630.83 407.59 625.77 403.07 619.96 M 553.36 635.32 L 553.11 635.09 C 551.46 642.21 555.42 650.09 562.58 652.20 L 562.68 652.46 C 563.27 652.57 564.45 652.80 565.03 652.91 C 566.01 648.84 566.76 644.71 567.02 640.53 L 567.88 640.08 C 564.57 636.03 558.91 635.35 554.36 633.30 C 554.11 633.81 553.61 634.82 553.36 635.32 M 638.80 641.05 C 638.96 646.55 637.71 651.94 635.28 656.87 C 643.52 652.56 649.94 644.93 652.33 635.91 C 647.81 637.58 643.30 639.31 638.80 641.05 M 542.02 639.50 C 541.88 639.72 541.62 640.16 541.48 640.38 C 542.56 641.27 543.63 642.18 544.69 643.13 C 543.74 641.95 542.84 640.75 542.02 639.50 M 398.76 639.60 C 397.37 646.66 396.70 653.87 396.65 661.06 C 396.24 662.87 398.45 663.00 399.60 663.48 C 405.58 665.01 411.43 667.10 417.53 668.17 C 431.53 671.01 445.61 673.94 459.91 674.66 C 462.71 673.81 465.03 671.66 468.03 671.27 C 472.22 669.99 476.46 671.62 480.69 671.59 C 481.97 671.00 483.10 670.16 484.27 669.38 C 470.53 666.82 457.08 662.59 444.26 657.08 C 443.04 655.22 442.05 653.14 440.37 651.65 C 435.58 648.72 429.95 647.37 424.39 646.96 L 424.00 646.40 C 415.48 644.56 406.96 642.57 398.76 639.60 M 614.61 650.52 C 609.44 652.69 604.04 654.30 599.01 656.79 C 601.14 660.21 605.01 661.97 608.95 662.12 C 619.00 662.23 628.75 654.58 630.20 644.45 C 624.87 646.12 619.82 648.53 614.61 650.52 M 543.17 652.98 C 539.57 661.93 533.35 669.83 525.36 675.26 C 523.13 676.85 520.59 678.01 518.62 679.95 C 526.33 681.84 534.36 679.72 541.36 676.39 C 546.55 673.69 552.06 669.23 552.32 662.93 C 551.35 658.23 546.35 656.08 543.17 652.98 M 587.22 661.20 C 590.17 667.82 593.85 674.10 598.07 680.00 C 602.00 685.68 607.87 689.62 613.79 692.97 C 614.47 692.46 615.15 691.96 615.85 691.47 C 611.73 688.59 607.51 685.73 604.20 681.90 C 598.43 675.54 594.70 667.74 590.81 660.17 C 589.61 660.51 588.41 660.85 587.22 661.20 M 549.97 680.70 C 554.20 679.60 558.65 679.14 562.59 677.11 C 561.70 674.99 560.74 672.91 559.73 670.86 C 557.32 674.91 553.83 678.07 549.97 680.70 M 398.08 672.34 C 394.44 680.56 391.30 689.04 388.97 697.73 C 395.79 699.68 402.66 701.47 409.50 703.41 C 427.41 707.73 445.73 710.54 464.13 711.72 C 458.63 708.66 453.81 703.75 452.39 697.45 C 451.03 692.70 452.12 687.80 453.40 683.18 C 441.87 681.87 430.40 680.04 419.03 677.77 C 411.99 676.18 404.98 674.46 398.08 672.34 M 616.04 672.58 C 613.25 673.44 610.53 674.48 607.90 675.73 C 611.82 679.84 615.98 684.24 621.51 686.08 L 621.60 686.30 C 623.61 687.61 625.65 689.34 625.63 691.99 C 625.37 695.62 621.83 697.39 619.04 698.95 C 622.33 697.95 625.47 696.52 628.50 694.92 C 625.88 686.91 622.61 679.13 619.26 671.41 C 618.18 671.80 617.11 672.19 616.04 672.58 M 500.04 682.99 C 501.68 685.10 504.04 682.70 505.82 682.08 C 501.51 679.40 497.81 675.95 494.69 671.96 C 493.31 676.42 497.17 680.14 500.04 682.99 M 483.29 678.85 C 483.98 683.37 486.50 687.38 490.02 690.27 C 492.41 689.13 494.78 687.96 497.15 686.78 C 493.29 683.82 490.86 679.57 489.54 674.96 C 487.42 676.20 485.34 677.50 483.29 678.85 M 463.22 683.38 C 460.87 686.73 460.07 690.81 460.40 694.85 C 461.35 697.57 462.59 700.32 464.85 702.22 C 469.73 706.78 477.53 706.90 483.13 703.62 C 484.60 701.52 485.88 699.30 487.01 697.01 C 485.04 695.28 483.18 693.43 481.47 691.46 C 479.58 688.45 477.23 685.51 476.73 681.89 C 476.32 680.83 476.74 679.19 475.34 678.81 C 473.27 678.75 471.15 678.38 469.14 678.98 C 466.83 679.94 465.10 681.80 463.22 683.38 M 557.78 688.34 C 564.79 699.10 571.33 710.14 578.04 721.08 C 589.00 719.83 599.82 717.57 610.46 714.71 C 613.26 713.88 616.04 712.96 618.82 712.05 L 618.77 711.92 C 623.28 710.31 627.82 708.66 631.92 706.16 C 631.53 704.38 631.12 702.60 630.69 700.85 C 626.08 702.82 621.62 705.20 616.81 706.70 C 613.58 707.74 610.35 708.79 607.08 709.69 C 599.51 711.45 591.82 713.14 584.03 713.28 C 581.49 713.39 580.09 710.92 578.72 709.21 C 573.54 701.85 568.75 694.24 563.88 686.69 C 561.86 687.28 559.82 687.81 557.78 688.34 M 516.00 691.16 C 513.94 694.76 512.14 698.51 509.88 702.00 C 504.38 710.29 500.40 719.48 494.66 727.63 C 492.28 730.95 489.49 734.95 485.02 735.26 C 475.00 735.97 464.95 735.07 454.98 734.03 C 437.60 731.90 420.31 728.96 403.28 724.89 C 402.47 733.93 401.43 742.94 400.76 752.00 C 400.72 754.36 400.20 757.10 401.86 759.09 C 405.48 763.54 410.22 766.91 414.82 770.28 C 418.20 772.95 422.68 773.03 426.71 773.96 C 423.28 770.58 421.30 766.17 420.06 761.59 C 423.64 764.83 427.16 768.22 431.32 770.72 C 436.12 773.52 441.19 776.67 446.97 776.51 C 457.09 776.11 466.35 771.37 474.53 765.72 C 472.93 769.89 469.73 773.04 466.96 776.43 C 474.94 777.01 481.60 772.08 487.82 767.81 C 492.78 764.52 495.10 758.83 497.73 753.74 C 502.73 742.89 506.90 731.68 511.65 720.72 C 512.36 719.22 513.06 717.17 515.09 717.28 C 527.04 715.48 539.25 712.16 551.36 714.58 C 548.88 715.45 546.35 716.12 543.81 716.77 C 536.10 719.11 528.08 720.58 520.64 723.71 C 519.10 725.71 518.50 728.55 519.31 730.98 C 522.28 741.20 523.00 752.03 526.85 761.98 C 530.63 766.62 536.96 768.79 542.76 769.53 C 545.66 769.96 548.56 770.35 551.49 770.54 C 549.57 767.65 547.59 764.79 546.04 761.69 C 552.19 766.11 559.04 770.72 566.95 770.46 C 571.90 770.21 577.32 770.50 581.64 767.66 C 585.32 765.56 588.31 762.52 591.54 759.85 C 590.91 762.56 590.32 765.29 589.88 768.05 C 595.77 766.91 601.53 763.89 604.81 758.72 C 608.05 753.10 608.56 746.37 609.30 740.06 C 610.01 734.94 610.13 729.76 610.22 724.60 C 599.19 726.79 588.22 729.59 576.97 730.40 C 574.11 730.87 571.95 728.61 570.56 726.43 C 566.84 720.74 563.90 714.58 560.14 708.92 C 555.90 702.79 552.21 696.29 547.75 690.31 C 537.21 691.39 526.59 691.56 516.00 691.16 M 496.16 696.18 C 494.11 699.32 493.64 703.33 491.31 706.37 C 489.75 709.05 486.57 710.30 485.20 713.10 C 484.02 715.04 483.23 717.63 480.91 718.49 C 477.30 718.96 473.65 718.61 470.04 718.49 C 449.23 717.11 428.39 714.77 408.15 709.55 C 400.98 707.92 393.95 705.80 386.99 703.43 C 386.48 705.42 385.94 707.40 385.40 709.40 C 392.61 712.68 400.35 714.64 408.03 716.55 C 432.86 722.64 458.32 726.47 483.91 726.85 C 491.78 715.38 498.49 703.16 505.72 691.28 C 502.58 693.01 499.26 694.39 496.16 696.18 M 580.12 701.15 C 581.60 703.32 582.75 705.90 584.94 707.49 C 589.06 707.11 593.08 706.11 597.17 705.49 C 591.18 705.60 585.41 703.86 580.12 701.15 M 551.23 779.67 C 547.84 779.19 544.44 778.81 541.02 778.76 C 542.15 786.25 544.24 793.55 545.34 801.04 C 546.50 808.61 547.54 816.21 549.51 823.62 C 552.38 824.47 555.34 824.90 558.32 825.16 C 571.12 827.42 584.31 827.05 597.05 824.58 C 594.53 818.79 589.11 814.39 583.10 812.64 C 579.71 811.38 576.06 811.51 572.51 811.26 C 574.61 808.58 578.23 808.16 581.31 807.36 C 582.65 806.98 584.36 806.87 584.40 805.10 C 586.84 795.87 589.42 786.68 591.67 777.41 C 589.72 777.72 587.79 778.04 585.86 778.36 C 574.35 779.51 562.78 780.53 551.23 779.67 M 418.19 782.05 C 418.23 797.78 420.09 813.42 421.91 829.02 C 424.40 829.80 426.91 830.53 429.45 831.17 C 441.81 833.88 454.54 834.00 467.10 832.81 C 467.68 826.70 462.08 820.75 456.15 819.76 C 451.52 818.24 446.63 818.16 441.82 817.83 C 446.42 815.30 451.63 813.66 456.93 814.25 C 457.89 813.41 458.75 812.45 459.23 811.26 C 463.03 802.99 466.13 794.43 469.90 786.15 C 467.75 786.20 465.62 786.24 463.49 786.28 L 463.35 786.75 C 451.55 786.02 439.71 785.60 428.00 783.81 C 424.74 783.15 421.47 782.56 418.19 782.05 Z" />
<path fill="#040403" opacity="1.00" d=" M 584.70 262.36 C 588.06 261.55 591.08 263.07 593.26 265.58 C 596.40 271.22 598.66 277.31 600.04 283.62 C 602.48 293.47 603.87 303.58 604.34 313.71 C 604.71 324.05 604.41 334.47 602.69 344.70 C 601.69 349.16 600.79 354.10 597.46 357.49 C 595.03 359.99 590.60 359.05 589.07 356.02 C 586.36 351.13 585.65 345.45 584.89 340.00 C 583.69 329.27 583.18 318.48 582.31 307.72 C 581.28 295.01 579.46 282.24 580.80 269.48 C 581.73 266.93 582.85 264.40 584.70 262.36 M 588.49 270.17 C 594.18 284.79 596.12 300.49 597.14 316.05 C 597.63 325.72 597.55 335.48 595.84 345.04 C 595.37 347.48 595.00 349.93 594.86 352.41 C 596.98 350.53 597.43 347.63 598.02 345.03 C 600.18 334.51 599.89 323.69 599.43 313.03 C 598.76 300.83 597.43 288.47 593.03 276.99 C 591.95 274.47 591.04 271.59 588.49 270.17 Z" />
<path fill="#040403" opacity="1.00" d=" M 556.55 448.84 C 559.85 448.74 564.75 446.46 566.81 450.21 C 569.64 455.55 567.38 461.91 564.93 466.95 C 557.88 480.55 540.04 485.89 526.05 480.72 C 514.53 477.09 505.11 465.49 506.70 453.05 C 506.92 450.00 509.83 447.57 512.90 448.27 C 527.35 450.18 542.06 450.87 556.55 448.84 M 516.19 465.93 C 524.60 476.16 540.22 478.71 551.72 472.42 C 551.70 472.21 551.68 471.80 551.66 471.60 C 543.14 461.60 527.43 459.72 516.19 465.93 Z" />
</g>
<g id="#c4d587ff">
<path fill="#c4d587" opacity="1.00" d=" M 497.58 195.24 C 508.05 195.12 518.52 195.14 528.97 195.69 C 536.95 204.47 542.69 214.96 548.38 225.29 C 545.63 223.81 542.61 222.57 539.47 223.60 C 536.03 218.36 532.89 212.91 528.85 208.09 C 525.71 204.35 523.10 199.24 517.87 198.22 C 511.20 196.67 504.33 196.31 497.58 195.24 Z" />
</g>
<g id="#8ea143ff">
<path fill="#8ea143" opacity="1.00" d=" M 469.94 196.66 C 475.07 196.23 480.23 196.16 485.36 195.67 C 487.06 197.64 488.78 199.61 490.55 201.53 C 489.23 203.99 488.15 206.57 487.26 209.22 C 482.13 204.21 476.42 199.77 469.94 196.66 Z" />
</g>
<g id="#9fb254ff">
<path fill="#9fb254" opacity="1.00" d=" M 485.36 195.67 C 489.43 195.50 493.50 195.01 497.58 195.24 C 504.33 196.31 511.20 196.67 517.87 198.22 C 523.10 199.24 525.71 204.35 528.85 208.09 C 532.89 212.91 536.03 218.36 539.47 223.60 L 539.66 223.90 C 531.09 228.44 522.41 232.78 513.79 237.24 C 511.37 229.96 506.47 223.95 502.71 217.37 C 499.40 211.56 495.17 206.34 490.55 201.53 C 488.78 199.61 487.06 197.64 485.36 195.67 Z" />
</g>
<g id="#9fb251ff">
<path fill="#9fb251" opacity="1.00" d=" M 391.82 242.87 C 412.35 223.14 438.16 209.13 465.76 202.19 C 482.98 210.29 494.59 226.38 504.29 242.17 C 487.06 251.27 469.87 260.44 452.78 269.79 C 437.46 278.50 422.09 287.28 408.19 298.17 C 388.45 313.36 370.91 331.62 357.88 352.92 C 357.03 347.65 357.08 342.29 357.40 336.98 C 358.17 323.74 359.50 310.47 362.47 297.53 C 364.83 286.69 370.99 276.92 372.04 265.77 C 377.47 257.24 384.62 249.93 391.82 242.87 M 387.32 293.48 C 383.18 295.18 383.30 301.76 387.38 303.48 C 390.99 305.64 395.85 301.99 395.44 297.99 C 395.39 294.15 390.61 291.57 387.32 293.48 Z" />
</g>
<g id="#849642ff">
<path fill="#849642" opacity="1.00" d=" M 487.26 209.22 C 488.15 206.57 489.23 203.99 490.55 201.53 C 495.17 206.34 499.40 211.56 502.71 217.37 C 506.47 223.95 511.37 229.96 513.79 237.24 C 511.32 238.64 508.82 239.98 506.28 241.21 C 502.17 229.41 495.87 218.33 487.26 209.22 Z" />
</g>
<g id="#c6d58aff">
<path fill="#c6d58a" opacity="1.00" d=" M 542.69 203.05 C 559.49 207.43 575.52 214.59 590.02 224.14 C 610.47 237.00 627.66 254.82 640.21 275.42 C 632.61 270.20 624.45 265.80 616.94 260.50 C 615.35 255.16 610.48 252.07 606.76 248.33 C 598.97 240.67 591.05 233.00 581.78 227.13 C 570.38 220.40 559.21 212.65 546.35 208.97 C 544.94 207.12 543.89 205.03 542.69 203.05 Z" />
</g>
<g id="#a2b459ff">
<path fill="#a2b459" opacity="1.00" d=" M 546.35 208.97 C 559.21 212.65 570.38 220.40 581.78 227.13 C 591.05 233.00 598.97 240.67 606.76 248.33 C 610.48 252.07 615.35 255.16 616.94 260.50 C 612.72 258.44 608.86 255.73 604.59 253.79 L 604.57 253.51 C 604.40 251.22 604.40 248.79 603.22 246.75 C 600.10 245.72 596.93 247.14 593.96 247.98 C 592.03 247.09 590.15 246.11 588.29 245.10 L 588.33 244.91 C 588.88 241.81 589.90 238.45 588.51 235.42 C 585.21 229.54 577.75 226.16 571.20 228.23 C 568.75 229.07 568.33 232.02 567.22 234.02 C 562.49 231.60 557.77 229.17 552.88 227.10 C 551.08 220.93 548.74 214.94 546.35 208.97 Z" />
</g>
<g id="#c2d088ff">
<path fill="#c2d088" opacity="1.00" d=" M 571.20 228.23 C 577.75 226.16 585.21 229.54 588.51 235.42 C 589.90 238.45 588.88 241.81 588.33 244.91 C 581.35 241.16 574.26 237.65 567.22 234.02 C 568.33 232.02 568.75 229.07 571.20 228.23 Z" />
</g>
<g id="#f7eaacff">
<path fill="#f7eaac" opacity="1.00" d=" M 531.47 238.37 C 535.11 236.49 538.64 234.40 542.29 232.53 C 544.89 241.49 546.72 250.67 548.34 259.85 C 544.72 257.53 541.15 255.14 537.56 252.79 C 539.55 251.77 541.66 250.88 543.38 249.41 C 543.13 245.32 541.59 241.24 538.60 238.37 C 537.10 238.90 535.62 239.42 534.13 239.95 C 533.47 239.55 532.14 238.76 531.47 238.37 Z" />
</g>
<g id="#faf4ceff">
<path fill="#faf4ce" opacity="1.00" d=" M 543.51 232.75 C 547.08 234.37 550.57 236.13 554.07 237.89 C 554.63 239.83 555.19 241.78 555.73 243.73 C 553.13 246.44 551.58 249.88 550.80 253.53 C 548.47 246.57 546.16 239.60 543.51 232.75 Z" />
</g>
<g id="#f1e198ff">
<path fill="#f1e198" opacity="1.00" d=" M 538.60 238.37 C 541.59 241.24 543.13 245.32 543.38 249.41 C 541.66 250.88 539.55 251.77 537.56 252.79 C 532.66 249.56 527.83 246.23 523.05 242.83 C 525.84 241.31 528.65 239.84 531.47 238.37 C 532.14 238.76 533.47 239.55 534.13 239.95 C 535.62 239.42 537.10 238.90 538.60 238.37 Z" />
</g>
<g id="#f9efbaff">
<path fill="#f9efba" opacity="1.00" d=" M 554.07 237.89 C 564.86 242.94 575.30 248.68 585.87 254.16 L 585.79 254.23 C 584.69 255.19 583.60 256.15 582.52 257.12 C 578.10 254.83 573.47 252.95 569.19 250.40 C 568.15 247.16 564.78 246.46 561.83 245.95 C 560.61 251.90 556.03 256.45 554.98 262.41 C 554.70 262.44 554.12 262.50 553.83 262.54 L 552.72 262.67 L 553.58 262.28 C 552.60 259.38 551.73 256.44 550.80 253.53 C 551.58 249.88 553.13 246.44 555.73 243.73 C 555.19 241.78 554.63 239.83 554.07 237.89 Z" />
</g>
<g id="#e2c74cff">
<path fill="#e2c74c" opacity="1.00" d=" M 452.63 280.62 C 475.89 267.61 499.44 255.15 523.05 242.83 C 527.83 246.23 532.66 249.56 537.56 252.79 C 541.15 255.14 544.72 257.53 548.34 259.85 C 548.53 261.25 548.72 262.65 548.92 264.06 C 546.26 264.78 543.79 266.01 541.45 267.44 C 541.01 266.67 540.58 265.89 540.15 265.12 C 539.64 266.21 539.14 267.30 538.64 268.39 C 538.00 267.99 537.37 267.60 536.75 267.20 C 536.20 268.45 535.66 269.70 535.12 270.96 C 534.18 270.01 533.24 269.07 532.31 268.13 C 532.38 269.44 532.46 270.74 532.55 272.05 C 531.63 271.09 530.71 270.12 529.79 269.16 C 530.70 273.27 532.97 277.59 530.87 281.72 C 529.08 276.07 527.48 270.06 523.44 265.55 C 521.40 263.19 518.07 261.80 515.01 262.80 C 512.07 263.73 510.44 266.65 509.61 269.42 C 507.60 276.07 507.64 283.09 507.76 289.97 C 508.32 304.71 509.93 319.40 512.01 334.00 C 513.08 340.48 514.27 347.05 516.94 353.09 C 518.37 356.19 520.43 359.57 524.05 360.31 C 527.32 361.22 530.63 359.01 532.17 356.21 C 535.41 350.36 536.01 343.51 536.54 336.97 C 537.27 321.74 536.27 306.40 533.20 291.45 C 535.57 293.05 538.42 294.31 541.29 293.23 C 544.32 292.19 548.43 292.24 550.29 289.21 C 550.57 286.11 549.02 282.39 551.95 280.12 C 553.85 288.69 554.84 297.43 555.82 306.15 C 558.37 329.98 559.63 354.09 557.11 377.97 C 533.93 372.81 510.79 367.07 487.13 364.51 C 461.40 361.43 435.22 359.78 409.46 363.45 C 404.95 354.59 401.09 345.11 401.16 334.99 C 400.84 328.81 404.42 323.49 407.37 318.37 C 410.49 312.79 414.68 307.91 417.93 302.40 C 428.80 294.13 440.78 287.38 452.63 280.62 M 476.28 280.38 C 472.43 281.87 471.79 286.54 471.12 290.08 C 469.69 302.04 471.37 314.09 472.80 325.97 C 474.00 334.21 475.19 342.66 478.82 350.25 C 480.25 353.09 482.64 355.92 486.01 356.27 C 490.18 356.03 492.58 352.05 493.52 348.41 C 495.62 340.81 495.55 332.83 495.30 325.02 C 494.68 314.30 492.96 303.57 489.51 293.38 C 487.89 289.07 486.21 284.41 482.49 281.45 C 480.79 280.01 478.35 279.79 476.28 280.38 M 442.47 296.71 C 439.50 298.53 438.83 302.30 438.27 305.46 C 437.03 314.48 438.43 323.61 439.68 332.55 C 440.86 338.96 442.03 345.70 445.78 351.18 C 447.43 353.76 450.96 355.52 453.84 353.82 C 457.82 351.59 458.67 346.62 459.35 342.52 C 460.66 328.79 458.95 314.48 452.85 302.00 C 451.16 298.16 446.80 294.42 442.47 296.71 Z" />
</g>
<g id="#f7eaa9ff">
<path fill="#f7eaa9" opacity="1.00" d=" M 561.83 245.95 C 564.78 246.46 568.15 247.16 569.19 250.40 C 571.85 256.77 579.31 258.87 584.70 262.36 C 582.85 264.40 581.73 266.93 580.80 269.48 C 579.94 271.48 579.13 273.49 578.37 275.53 C 575.43 274.80 572.55 273.90 569.69 272.91 C 570.53 272.82 572.22 272.63 573.06 272.53 C 566.77 269.63 560.87 266.02 554.98 262.41 C 556.03 256.45 560.61 251.90 561.83 245.95 Z" />
</g>
<g id="#cfdb95ff">
<path fill="#cfdb95" opacity="1.00" d=" M 593.96 247.98 C 596.93 247.14 600.10 245.72 603.22 246.75 C 604.40 248.79 604.40 251.22 604.57 253.51 C 600.96 251.80 597.48 249.84 593.96 247.98 Z" />
</g>
<g id="#edd059ff">
<path fill="#edd059" opacity="1.00" d=" M 584.70 262.36 C 579.31 258.87 571.85 256.77 569.19 250.40 C 573.47 252.95 578.10 254.83 582.52 257.12 C 587.75 259.60 592.45 263.20 597.98 265.04 C 605.55 267.55 611.59 273.02 618.76 276.35 C 623.33 278.44 627.70 280.93 631.94 283.62 C 637.17 287.49 642.53 291.17 647.59 295.26 C 646.87 295.30 645.42 295.39 644.69 295.43 C 638.81 291.94 632.07 290.10 626.50 286.04 C 624.93 283.29 622.68 280.71 619.22 280.83 C 617.05 278.50 614.46 276.58 611.42 275.59 C 604.84 273.26 599.29 268.96 593.26 265.58 C 591.08 263.07 588.06 261.55 584.70 262.36 Z" />
</g>
<g id="#f4edc5ff">
<path fill="#f4edc5" opacity="1.00" d=" M 582.52 257.12 C 583.60 256.15 584.69 255.19 585.79 254.23 C 602.99 262.87 619.60 272.79 635.20 284.06 C 634.39 283.95 632.76 283.73 631.94 283.62 C 627.70 280.93 623.33 278.44 618.76 276.35 C 611.59 273.02 605.55 267.55 597.98 265.04 C 592.45 263.20 587.75 259.60 582.52 257.12 Z" />
</g>
<g id="#f3dc69ff">
<path fill="#f3dc69" opacity="1.00" d=" M 553.83 262.54 C 554.12 262.50 554.70 262.44 554.98 262.41 C 560.87 266.02 566.77 269.63 573.06 272.53 C 572.22 272.63 570.53 272.82 569.69 272.91 C 564.83 271.37 559.86 270.19 555.13 268.27 C 554.66 266.37 554.23 264.45 553.83 262.54 Z" />
</g>
<g id="#030303ff">
<path fill="#030303" opacity="1.00" d=" M 509.61 269.42 C 510.44 266.65 512.07 263.73 515.01 262.80 C 518.07 261.80 521.40 263.19 523.44 265.55 C 527.48 270.06 529.08 276.07 530.87 281.72 C 531.73 284.94 532.50 288.18 533.20 291.45 C 536.27 306.40 537.27 321.74 536.54 336.97 C 536.01 343.51 535.41 350.36 532.17 356.21 C 530.63 359.01 527.32 361.22 524.05 360.31 C 520.43 359.57 518.37 356.19 516.94 353.09 C 514.27 347.05 513.08 340.48 512.01 334.00 C 509.93 319.40 508.32 304.71 507.76 289.97 C 507.64 283.09 507.60 276.07 509.61 269.42 M 518.63 268.86 C 523.55 281.01 526.46 293.90 527.67 306.94 C 529.37 322.85 530.31 339.12 526.75 354.85 C 528.06 354.05 528.99 352.85 529.41 351.38 C 531.47 345.48 531.80 339.15 532.26 332.97 C 533.05 314.96 530.62 296.83 525.50 279.56 C 523.99 275.64 522.76 270.82 518.63 268.86 Z" />
</g>
<g id="#e0c243ff">
<path fill="#e0c243" opacity="1.00" d=" M 541.45 267.44 C 543.79 266.01 546.26 264.78 548.92 264.06 L 549.07 264.01 C 549.88 269.40 551.03 274.74 551.95 280.12 C 549.02 282.39 550.57 286.11 550.29 289.21 C 548.43 292.24 544.32 292.19 541.29 293.23 C 538.42 294.31 535.57 293.05 533.20 291.45 C 532.50 288.18 531.73 284.94 530.87 281.72 C 532.97 277.59 530.70 273.27 529.79 269.16 C 530.71 270.12 531.63 271.09 532.55 272.05 C 532.46 270.74 532.38 269.44 532.31 268.13 C 533.24 269.07 534.18 270.01 535.12 270.96 C 535.66 269.70 536.20 268.45 536.75 267.20 C 537.37 267.60 538.00 267.99 538.64 268.39 C 539.14 267.30 539.64 266.21 540.15 265.12 C 540.58 265.89 541.01 266.67 541.45 267.44 Z" />
</g>
<g id="#869742ff">
<path fill="#869742" opacity="1.00" d=" M 360.34 283.42 C 364.01 277.40 367.50 271.20 372.04 265.77 C 370.99 276.92 364.83 286.69 362.47 297.53 C 359.50 310.47 358.17 323.74 357.40 336.98 C 357.08 342.29 357.03 347.65 357.88 352.92 C 356.38 355.52 354.89 358.13 353.50 360.79 C 348.66 359.94 343.62 359.94 339.19 362.33 C 339.35 334.77 347.16 307.54 360.34 283.42 Z" />
</g>
<g id="#f0dc85ff">
<path fill="#f0dc85" opacity="1.00" d=" M 593.26 265.58 C 599.29 268.96 604.84 273.26 611.42 275.59 C 614.46 276.58 617.05 278.50 619.22 280.83 C 616.74 282.11 615.45 284.62 614.96 287.28 C 610.42 286.54 606.15 284.81 602.00 282.90 C 601.51 283.08 600.53 283.44 600.04 283.62 C 598.66 277.31 596.40 271.22 593.26 265.58 Z" />
</g>
<g id="#fbf1c5ff">
<path fill="#fbf1c5" opacity="1.00" d=" M 555.13 268.27 C 559.86 270.19 564.83 271.37 569.69 272.91 C 572.55 273.90 575.43 274.80 578.37 275.53 C 579.13 273.49 579.94 271.48 580.80 269.48 C 579.46 282.24 581.28 295.01 582.31 307.72 C 575.20 305.52 568.18 303.04 561.18 300.53 C 559.89 289.66 557.79 278.89 555.13 268.27 Z" />
<path fill="#fbf1c5" opacity="1.00" d=" M 648.72 342.16 C 650.97 330.11 650.82 317.62 647.53 305.78 C 650.32 312.48 650.84 319.80 650.73 326.97 C 650.47 332.08 650.65 337.32 648.72 342.16 Z" />
</g>
<g id="#626053ff">
<path fill="#626053" opacity="1.00" d=" M 518.63 268.86 C 522.76 270.82 523.99 275.64 525.50 279.56 C 530.62 296.83 533.05 314.96 532.26 332.97 C 531.80 339.15 531.47 345.48 529.41 351.38 C 528.99 352.85 528.06 354.05 526.75 354.85 C 530.31 339.12 529.37 322.85 527.67 306.94 C 526.46 293.90 523.55 281.01 518.63 268.86 Z" />
</g>
<g id="#666456ff">
<path fill="#666456" opacity="1.00" d=" M 588.49 270.17 C 591.04 271.59 591.95 274.47 593.03 276.99 C 597.43 288.47 598.76 300.83 599.43 313.03 C 599.89 323.69 600.18 334.51 598.02 345.03 C 597.43 347.63 596.98 350.53 594.86 352.41 C 595.00 349.93 595.37 347.48 595.84 345.04 C 597.55 335.48 597.63 325.72 597.14 316.05 C 596.12 300.49 594.18 284.79 588.49 270.17 Z" />
</g>
<g id="#040303ff">
<path fill="#040303" opacity="1.00" d=" M 476.28 280.38 C 478.35 279.79 480.79 280.01 482.49 281.45 C 486.21 284.41 487.89 289.07 489.51 293.38 C 492.96 303.57 494.68 314.30 495.30 325.02 C 495.55 332.83 495.62 340.81 493.52 348.41 C 492.58 352.05 490.18 356.03 486.01 356.27 C 482.64 355.92 480.25 353.09 478.82 350.25 C 475.19 342.66 474.00 334.21 472.80 325.97 C 471.37 314.09 469.69 302.04 471.12 290.08 C 471.79 286.54 472.43 281.87 476.28 280.38 M 479.39 286.11 C 484.38 297.44 486.69 309.73 487.87 321.99 C 488.90 331.40 488.92 340.95 487.39 350.31 C 490.09 348.15 489.98 344.25 490.54 341.12 C 491.57 324.56 490.25 307.49 484.07 291.96 C 482.88 289.82 482.11 286.68 479.39 286.11 Z" />
<path fill="#040303" opacity="1.00" d=" M 442.47 296.71 C 446.80 294.42 451.16 298.16 452.85 302.00 C 458.95 314.48 460.66 328.79 459.35 342.52 C 458.67 346.62 457.82 351.59 453.84 353.82 C 450.96 355.52 447.43 353.76 445.78 351.18 C 442.03 345.70 440.86 338.96 439.68 332.55 C 438.43 323.61 437.03 314.48 438.27 305.46 C 438.83 302.30 439.50 298.53 442.47 296.71 M 446.50 301.41 C 449.40 311.09 452.56 320.85 452.77 331.06 C 453.32 337.20 452.23 343.34 452.72 349.46 C 456.11 343.58 455.66 336.50 455.32 329.97 C 454.43 321.35 453.39 312.45 449.31 304.66 C 448.71 303.33 447.56 302.36 446.50 301.41 Z" />
<path fill="#040303" opacity="1.00" d=" M 465.21 385.32 C 469.94 383.13 475.55 385.56 478.59 389.47 C 485.91 398.90 485.88 412.81 480.02 422.96 C 477.03 428.39 469.49 431.65 463.95 428.02 C 456.31 422.78 454.57 412.61 455.22 403.98 C 455.75 396.87 458.38 388.70 465.21 385.32 M 458.95 417.06 C 460.34 422.55 466.03 427.86 471.99 426.12 C 476.29 425.05 478.86 420.92 479.60 416.79 C 477.01 416.76 474.42 416.78 471.83 416.88 C 470.01 415.09 468.66 412.87 466.74 411.19 C 463.20 409.11 457.54 412.89 458.95 417.06 Z" />
</g>
<g id="#040404ff">
<path fill="#040404" opacity="1.00" d=" M 614.96 287.28 C 615.45 284.62 616.74 282.11 619.22 280.83 C 622.68 280.71 624.93 283.29 626.50 286.04 C 632.44 300.92 633.06 317.27 632.08 333.07 C 631.13 338.77 630.57 345.14 626.67 349.70 C 624.13 352.39 619.85 350.50 618.83 347.31 C 614.94 337.50 615.58 326.69 614.76 316.34 C 614.37 306.67 613.41 296.89 614.96 287.28 M 621.55 287.76 C 627.13 306.02 627.61 325.57 625.13 344.39 C 627.28 340.62 627.59 336.19 628.12 331.98 C 629.31 319.25 628.15 306.35 625.06 293.97 C 624.24 291.74 623.84 288.96 621.55 287.76 Z" />
</g>
<g id="#f6edbcff">
<path fill="#f6edbc" opacity="1.00" d=" M 600.04 283.62 C 600.53 283.44 601.51 283.08 602.00 282.90 C 606.15 284.81 610.42 286.54 614.96 287.28 C 613.41 296.89 614.37 306.67 614.76 316.34 C 611.29 315.44 607.82 314.57 604.34 313.71 C 603.87 303.58 602.48 293.47 600.04 283.62 Z" />
</g>
<g id="#f2e6a8ff">
<path fill="#f2e6a8" opacity="1.00" d=" M 631.94 283.62 C 632.76 283.73 634.39 283.95 635.20 284.06 C 645.35 290.86 654.77 298.77 663.29 307.54 C 662.30 308.21 661.35 308.89 660.38 309.56 C 657.91 307.76 655.54 305.16 652.22 305.36 C 651.18 303.06 649.62 301.07 647.90 299.25 C 646.80 297.99 645.77 296.69 644.69 295.43 C 645.42 295.39 646.87 295.30 647.59 295.26 C 642.53 291.17 637.17 287.49 631.94 283.62 Z" />
</g>
<g id="#605e4eff">
<path fill="#605e4e" opacity="1.00" d=" M 479.39 286.11 C 482.11 286.68 482.88 289.82 484.07 291.96 C 490.25 307.49 491.57 324.56 490.54 341.12 C 489.98 344.25 490.09 348.15 487.39 350.31 C 488.92 340.95 488.90 331.40 487.87 321.99 C 486.69 309.73 484.38 297.44 479.39 286.11 Z" />
</g>
<g id="#f8f1c5ff">
<path fill="#f8f1c5" opacity="1.00" d=" M 626.50 286.04 C 632.07 290.10 638.81 291.94 644.69 295.43 C 645.77 296.69 646.80 297.99 647.90 299.25 C 645.84 299.08 643.39 299.37 642.54 301.58 C 639.49 307.82 639.92 315.07 639.87 321.84 C 637.45 321.65 635.05 321.46 632.64 321.28 C 632.60 325.21 632.53 329.16 632.08 333.07 C 633.06 317.27 632.44 300.92 626.50 286.04 Z" />
</g>
<g id="#737266ff">
<path fill="#737266" opacity="1.00" d=" M 621.55 287.76 C 623.84 288.96 624.24 291.74 625.06 293.97 C 628.15 306.35 629.31 319.25 628.12 331.98 C 627.59 336.19 627.28 340.62 625.13 344.39 C 627.61 325.57 627.13 306.02 621.55 287.76 Z" />
</g>
<g id="#030403ff">
<path fill="#030403" opacity="1.00" d=" M 387.32 293.48 C 390.61 291.57 395.39 294.15 395.44 297.99 C 395.85 301.99 390.99 305.64 387.38 303.48 C 383.30 301.76 383.18 295.18 387.32 293.48 Z" />
</g>
<g id="#060606ff">
<path fill="#060606" opacity="1.00" d=" M 642.54 301.58 C 643.39 299.37 645.84 299.08 647.90 299.25 C 649.62 301.07 651.18 303.06 652.22 305.36 C 654.35 312.00 655.12 318.96 655.07 325.91 C 654.53 333.00 654.68 341.10 649.95 346.89 C 646.34 350.10 642.72 345.56 641.91 342.16 C 640.39 335.49 640.23 328.64 639.87 321.84 C 639.92 315.07 639.49 307.82 642.54 301.58 M 648.72 342.16 C 650.65 337.32 650.47 332.08 650.73 326.97 C 650.84 319.80 650.32 312.48 647.53 305.78 C 650.82 317.62 650.97 330.11 648.72 342.16 Z" />
</g>
<g id="#e4c84eff">
<path fill="#e4c84e" opacity="1.00" d=" M 561.18 300.53 C 568.18 303.04 575.20 305.52 582.31 307.72 C 583.18 318.48 583.69 329.27 584.89 340.00 C 585.65 345.45 586.36 351.13 589.07 356.02 C 590.60 359.05 595.03 359.99 597.46 357.49 C 600.79 354.10 601.69 349.16 602.69 344.70 C 604.41 334.47 604.71 324.05 604.34 313.71 C 607.82 314.57 611.29 315.44 614.76 316.34 C 615.58 326.69 614.94 337.50 618.83 347.31 C 619.85 350.50 624.13 352.39 626.67 349.70 C 630.57 345.14 631.13 338.77 632.08 333.07 C 632.53 329.16 632.60 325.21 632.64 321.28 C 635.05 321.46 637.45 321.65 639.87 321.84 C 640.23 328.64 640.39 335.49 641.91 342.16 C 639.45 343.54 640.68 346.37 642.09 347.99 C 643.82 349.70 645.77 351.22 647.32 353.13 C 645.33 353.94 643.35 354.76 641.34 355.50 C 631.21 357.24 620.98 358.55 611.00 361.14 C 592.99 365.33 575.43 371.24 558.06 377.51 C 563.60 352.27 563.58 326.15 561.18 300.53 Z" />
</g>
<g id="#656250ff">
<path fill="#656250" opacity="1.00" d=" M 446.50 301.41 C 447.56 302.36 448.71 303.33 449.31 304.66 C 453.39 312.45 454.43 321.35 455.32 329.97 C 455.66 336.50 456.11 343.58 452.72 349.46 C 452.23 343.34 453.32 337.20 452.77 331.06 C 452.56 320.85 449.40 311.09 446.50 301.41 Z" />
</g>
<g id="#c4a432ff">
<path fill="#c4a432" opacity="1.00" d=" M 403.51 313.66 C 408.26 309.85 412.68 305.55 417.93 302.40 C 414.68 307.91 410.49 312.79 407.37 318.37 C 404.42 323.49 400.84 328.81 401.16 334.99 C 401.09 345.11 404.95 354.59 409.46 363.45 C 394.72 365.69 381.41 373.20 369.71 382.14 C 368.49 375.19 365.06 368.53 359.51 364.06 C 371.15 344.92 386.12 327.79 403.51 313.66 Z" />
</g>
<g id="#f8f1bfff">
<path fill="#f8f1bf" opacity="1.00" d=" M 652.22 305.36 C 655.54 305.16 657.91 307.76 660.38 309.56 C 661.35 308.89 662.30 308.21 663.29 307.54 C 664.98 309.49 666.90 311.28 668.24 313.51 C 669.24 318.98 669.49 324.58 669.84 330.13 C 666.33 328.81 662.77 327.62 659.10 326.82 C 657.75 326.51 656.40 326.21 655.07 325.91 C 655.12 318.96 654.35 312.00 652.22 305.36 Z" />
</g>
<g id="#e6ca58ff">
<path fill="#e6ca58" opacity="1.00" d=" M 649.95 346.89 C 654.68 341.10 654.53 333.00 655.07 325.91 C 656.40 326.21 657.75 326.51 659.10 326.82 C 663.81 335.52 664.64 345.58 665.43 355.26 C 657.41 354.23 649.36 355.22 641.34 355.50 C 643.35 354.76 645.33 353.94 647.32 353.13 C 645.77 351.22 643.82 349.70 642.09 347.99 C 640.68 346.37 639.45 343.54 641.91 342.16 C 642.72 345.56 646.34 350.10 649.95 346.89 Z" />
</g>
<g id="#f5e79fff">
<path fill="#f5e79f" opacity="1.00" d=" M 659.10 326.82 C 662.77 327.62 666.33 328.81 669.84 330.13 C 670.66 338.69 670.42 347.33 670.00 355.91 C 668.47 355.69 666.95 355.48 665.43 355.26 C 664.64 345.58 663.81 335.52 659.10 326.82 Z" />
</g>
<g id="#f7cd9dff">
<path fill="#f7cd9d" opacity="1.00" d=" M 611.46 370.41 C 623.60 367.64 635.83 365.08 648.27 364.14 C 648.64 388.44 649.44 412.76 652.13 436.93 C 652.80 440.67 650.74 444.07 649.48 447.44 C 631.32 491.55 590.28 525.86 543.27 534.63 C 533.95 534.23 524.58 535.03 515.30 533.72 C 495.75 530.87 476.65 524.46 459.65 514.34 C 449.14 508.07 439.71 500.15 431.12 491.47 C 431.43 484.59 430.81 477.60 428.54 471.07 C 425.59 462.19 419.10 455.18 414.81 446.98 C 409.89 437.75 408.11 427.27 406.90 416.99 C 405.52 402.19 405.93 387.23 408.17 372.54 C 424.03 369.78 440.20 370.12 456.23 370.64 C 453.69 373.14 451.66 376.19 451.11 379.78 C 457.68 374.83 466.24 371.34 474.52 373.60 C 479.08 374.56 482.91 377.30 486.64 379.96 C 486.68 377.30 485.21 375.12 483.82 373.00 C 506.47 376.12 528.85 380.94 551.05 386.36 C 553.98 386.98 557.12 388.31 560.06 386.91 C 574.19 381.76 588.40 376.68 602.95 372.87 C 607.71 373.82 611.68 376.74 615.79 379.13 C 615.26 375.83 613.28 373.10 611.46 370.41 M 593.54 384.70 C 588.78 386.36 585.95 391.01 584.37 395.53 C 582.05 402.65 582.17 410.51 584.44 417.63 C 585.96 422.21 589.08 426.57 593.61 428.53 C 598.17 430.48 603.40 428.07 606.43 424.51 C 610.79 419.06 612.13 411.79 611.87 404.97 C 611.58 398.77 609.63 392.30 605.12 387.86 C 602.16 384.89 597.61 383.39 593.54 384.70 M 465.21 385.32 C 458.38 388.70 455.75 396.87 455.22 403.98 C 454.57 412.61 456.31 422.78 463.95 428.02 C 469.49 431.65 477.03 428.39 480.02 422.96 C 485.88 412.81 485.91 398.90 478.59 389.47 C 475.55 385.56 469.94 383.13 465.21 385.32 M 616.31 434.44 C 611.10 435.37 604.57 437.30 603.03 443.08 C 601.76 447.73 606.02 451.37 609.68 453.31 C 618.01 456.99 628.11 456.39 636.04 451.95 C 638.80 450.40 641.37 447.42 640.75 444.05 C 640.05 440.41 636.92 437.80 633.69 436.36 C 628.24 434.05 622.12 433.57 616.31 434.44 M 439.33 435.35 C 434.96 436.14 430.38 437.93 427.80 441.75 C 426.22 444.06 426.56 447.42 428.62 449.35 C 435.22 456.71 446.51 457.33 455.40 454.47 C 459.62 452.85 465.26 450.37 465.07 444.99 C 465.40 441.45 462.17 439.10 459.42 437.62 C 453.25 434.57 446.02 434.28 439.33 435.35 M 556.55 448.84 C 542.06 450.87 527.35 450.18 512.90 448.27 C 509.83 447.57 506.92 450.00 506.70 453.05 C 505.11 465.49 514.53 477.09 526.05 480.72 C 540.04 485.89 557.88 480.55 564.93 466.95 C 567.38 461.91 569.64 455.55 566.81 450.21 C 564.75 446.46 559.85 448.74 556.55 448.84 Z" />
</g>
<g id="#e0c047ff">
<path fill="#e0c047" opacity="1.00" d=" M 657.32 363.55 C 659.31 363.63 661.31 363.71 663.32 363.79 C 663.21 385.40 664.96 406.94 667.11 428.42 C 664.82 427.73 662.44 427.42 660.08 427.28 C 658.43 406.08 657.79 384.82 657.32 363.55 Z" />
</g>
<g id="#eed671ff">
<path fill="#eed671" opacity="1.00" d=" M 344.18 368.26 C 346.60 367.24 349.60 367.01 351.96 368.29 L 352.10 368.68 C 350.69 368.97 349.31 369.35 347.93 369.72 C 346.81 372.59 345.46 375.38 343.84 378.00 C 341.57 377.62 339.29 377.39 337.01 377.14 C 338.77 373.77 340.63 370.05 344.18 368.26 Z" />
</g>
<g id="#f6f0daff">
<path fill="#f6f0da" opacity="1.00" d=" M 351.96 368.29 C 356.88 370.48 359.95 375.36 361.17 380.47 C 358.54 381.41 355.89 382.29 353.22 383.09 C 353.02 379.35 353.31 375.62 353.41 371.89 C 353.44 370.64 353.00 369.57 352.10 368.68 L 351.96 368.29 Z" />
</g>
<g id="#efd360ff">
<path fill="#efd360" opacity="1.00" d=" M 347.93 369.72 C 349.31 369.35 350.69 368.97 352.10 368.68 C 353.00 369.57 353.44 370.64 353.41 371.89 C 353.31 375.62 353.02 379.35 353.22 383.09 C 355.89 382.29 358.54 381.41 361.17 380.47 C 362.11 385.34 362.20 390.39 361.00 395.23 C 357.15 395.81 353.28 397.32 351.49 401.06 C 351.52 400.53 351.58 399.49 351.61 398.96 C 350.76 401.43 351.31 405.69 347.71 405.73 C 349.48 401.01 351.46 396.14 350.78 390.98 C 350.61 385.88 348.54 380.54 343.84 378.00 C 345.46 375.38 346.81 372.59 347.93 369.72 Z" />
</g>
<g id="#d2b340ff">
<path fill="#d2b340" opacity="1.00" d=" M 388.39 380.18 C 391.77 378.37 395.27 376.82 398.80 375.34 C 398.51 378.01 398.39 380.74 397.63 383.34 C 396.71 385.81 396.10 388.44 394.74 390.72 C 392.97 392.69 390.14 392.93 387.76 393.68 C 387.76 389.17 388.07 384.67 388.39 380.18 Z" />
</g>
<g id="#cbaa35ff">
<path fill="#cbaa35" opacity="1.00" d=" M 337.01 377.14 C 339.29 377.39 341.57 377.62 343.84 378.00 C 348.54 380.54 350.61 385.88 350.78 390.98 C 351.46 396.14 349.48 401.01 347.71 405.73 C 351.31 405.69 350.76 401.43 351.61 398.96 C 351.58 399.49 351.52 400.53 351.49 401.06 C 351.48 401.82 351.46 403.35 351.45 404.11 C 351.67 404.53 352.10 405.37 352.31 405.79 L 352.44 406.03 C 347.21 406.89 341.93 404.16 339.21 399.71 C 335.07 393.04 334.60 384.50 337.01 377.14 Z" />
</g>
<g id="#829445ff">
<path fill="#829445" opacity="1.00" d=" M 370.49 392.61 C 374.84 389.33 379.28 386.16 383.71 382.98 C 383.48 385.89 383.26 388.81 382.84 391.71 C 382.47 393.96 382.20 396.28 381.33 398.41 C 380.07 400.43 378.03 401.76 376.30 403.35 C 374.63 400.49 372.56 397.88 370.13 395.63 C 370.24 394.62 370.36 393.61 370.49 392.61 Z" />
</g>
<g id="#e1c64bff">
<path fill="#e1c64b" opacity="1.00" d=" M 394.74 390.72 C 396.10 388.44 396.71 385.81 397.63 383.34 C 396.95 395.47 396.42 407.65 397.78 419.75 L 397.78 419.75 C 395.57 416.97 391.59 418.89 389.22 420.49 L 388.97 420.63 C 388.44 411.66 387.47 402.69 387.76 393.68 C 390.14 392.93 392.97 392.69 394.74 390.72 Z" />
</g>
<g id="#030203ff">
<path fill="#030203" opacity="1.00" d=" M 593.54 384.70 C 597.61 383.39 602.16 384.89 605.12 387.86 C 609.63 392.30 611.58 398.77 611.87 404.97 C 612.13 411.79 610.79 419.06 606.43 424.51 C 603.40 428.07 598.17 430.48 593.61 428.53 C 589.08 426.57 585.96 422.21 584.44 417.63 C 582.17 410.51 582.05 402.65 584.37 395.53 C 585.95 391.01 588.78 386.36 593.54 384.70 M 586.32 416.97 C 587.86 421.96 592.40 426.72 597.95 426.42 C 603.12 425.95 606.92 421.31 607.63 416.37 C 604.57 416.26 601.48 416.76 598.45 416.34 C 596.29 414.89 595.65 411.68 593.00 410.72 C 589.55 409.85 584.83 413.13 586.32 416.97 Z" />
</g>
<g id="#9fb152ff">
<path fill="#9fb152" opacity="1.00" d=" M 381.33 398.41 C 382.20 396.28 382.47 393.96 382.84 391.71 C 382.00 403.81 382.94 415.95 384.67 427.93 C 386.47 439.24 389.53 450.56 395.67 460.34 C 399.35 467.16 405.76 472.83 406.64 480.89 C 407.17 485.45 407.41 490.70 404.37 494.49 C 401.75 497.32 397.63 497.79 394.01 498.25 C 382.39 499.12 370.60 497.16 359.74 492.99 C 360.63 492.51 361.53 492.04 362.43 491.58 C 360.59 477.12 358.57 462.63 358.64 448.03 C 358.74 438.14 361.03 428.29 365.35 419.39 C 367.89 413.39 371.17 407.52 376.30 403.35 C 378.03 401.76 380.07 400.43 381.33 398.41 Z" />
</g>
<g id="#f0d877ff">
<path fill="#f0d877" opacity="1.00" d=" M 351.49 401.06 C 353.28 397.32 357.15 395.81 361.00 395.23 C 359.59 399.71 357.08 404.27 352.31 405.79 C 352.10 405.37 351.67 404.53 351.45 404.11 C 351.46 403.35 351.48 401.82 351.49 401.06 Z" />
</g>
<g id="#889844ff">
<path fill="#889844" opacity="1.00" d=" M 370.13 395.63 C 372.56 397.88 374.63 400.49 376.30 403.35 C 371.17 407.52 367.89 413.39 365.35 419.39 C 361.03 428.29 358.74 438.14 358.64 448.03 C 358.57 462.63 360.59 477.12 362.43 491.58 C 361.53 492.04 360.63 492.51 359.74 492.99 C 355.10 491.04 350.68 488.51 347.01 485.04 C 348.25 477.99 346.35 470.99 345.34 464.05 C 342.63 447.43 342.21 430.54 342.60 413.73 C 348.96 416.22 356.58 415.33 361.76 410.73 C 366.41 406.98 368.65 401.24 370.13 395.63 Z" />
</g>
<g id="#2aa5d2ff">
<path fill="#2aa5d2" opacity="1.00" d=" M 458.95 417.06 C 457.54 412.89 463.20 409.11 466.74 411.19 C 468.66 412.87 470.01 415.09 471.83 416.88 C 474.42 416.78 477.01 416.76 479.60 416.79 C 478.86 420.92 476.29 425.05 471.99 426.12 C 466.03 427.86 460.34 422.55 458.95 417.06 Z" />
</g>
<g id="#26a7d9ff">
<path fill="#26a7d9" opacity="1.00" d=" M 586.32 416.97 C 584.83 413.13 589.55 409.85 593.00 410.72 C 595.65 411.68 596.29 414.89 598.45 416.34 C 601.48 416.76 604.57 416.26 607.63 416.37 C 606.92 421.31 603.12 425.95 597.95 426.42 C 592.40 426.72 587.86 421.96 586.32 416.97 Z" />
</g>
<g id="#f6eaa8ff">
<path fill="#f6eaa8" opacity="1.00" d=" M 389.22 420.49 C 391.59 418.89 395.57 416.97 397.78 419.75 C 396.13 422.74 392.83 423.81 389.65 424.16 C 389.54 423.24 389.33 421.40 389.22 420.49 Z" />
</g>
<g id="#f3e184ff">
<path fill="#f3e184" opacity="1.00" d=" M 397.78 419.75 L 397.78 419.75 C 398.08 421.98 398.38 424.22 398.67 426.46 C 396.14 429.58 394.00 432.98 391.86 436.37 C 391.00 432.32 390.21 428.26 389.65 424.16 C 392.83 423.81 396.13 422.74 397.78 419.75 Z" />
<path fill="#f3e184" opacity="1.00" d=" M 660.50 428.33 C 660.94 428.60 661.82 429.13 662.26 429.40 C 662.04 431.70 662.02 434.03 662.20 436.34 C 662.88 436.56 664.23 436.99 664.91 437.20 C 665.51 436.17 666.11 435.14 666.73 434.13 C 667.15 437.30 667.41 440.50 667.45 443.71 C 665.58 444.80 663.80 446.06 662.31 447.64 C 664.09 447.80 665.89 447.96 667.68 448.10 C 667.81 446.70 667.93 445.31 668.04 443.92 C 668.32 446.98 668.55 450.04 668.62 453.12 C 668.47 451.70 668.32 450.30 668.16 448.90 C 665.99 448.66 663.82 448.42 661.67 448.18 C 661.53 441.55 660.42 434.96 660.50 428.33 Z" />
</g>
<g id="#f0d86fff">
<path fill="#f0d86f" opacity="1.00" d=" M 398.67 426.46 C 400.14 434.18 402.07 441.88 405.43 449.02 C 402.90 450.56 400.34 452.04 397.74 453.46 L 397.59 453.54 C 395.13 448.02 393.28 442.24 391.86 436.37 C 394.00 432.98 396.14 429.58 398.67 426.46 Z" />
</g>
<g id="#edd565ff">
<path fill="#edd565" opacity="1.00" d=" M 660.08 427.28 C 662.44 427.42 664.82 427.73 667.11 428.42 C 667.34 433.59 667.94 438.75 668.04 443.92 C 667.93 445.31 667.81 446.70 667.68 448.10 C 665.89 447.96 664.09 447.80 662.31 447.64 C 663.80 446.06 665.58 444.80 667.45 443.71 C 667.41 440.50 667.15 437.30 666.73 434.13 C 666.11 435.14 665.51 436.17 664.91 437.20 C 664.23 436.99 662.88 436.56 662.20 436.34 C 662.02 434.03 662.04 431.70 662.26 429.40 C 661.82 429.13 660.94 428.60 660.50 428.33 L 660.08 427.28 Z" />
</g>
<g id="#f1b584ff">
<path fill="#f1b584" opacity="1.00" d=" M 616.31 434.44 C 622.12 433.57 628.24 434.05 633.69 436.36 C 636.92 437.80 640.05 440.41 640.75 444.05 C 641.37 447.42 638.80 450.40 636.04 451.95 C 628.11 456.39 618.01 456.99 609.68 453.31 C 606.02 451.37 601.76 447.73 603.03 443.08 C 604.57 437.30 611.10 435.37 616.31 434.44 Z" />
</g>
<g id="#f1b682ff">
<path fill="#f1b682" opacity="1.00" d=" M 439.33 435.35 C 446.02 434.28 453.25 434.57 459.42 437.62 C 462.17 439.10 465.40 441.45 465.07 444.99 C 465.26 450.37 459.62 452.85 455.40 454.47 C 446.51 457.33 435.22 456.71 428.62 449.35 C 426.56 447.42 426.22 444.06 427.80 441.75 C 430.38 437.93 434.96 436.14 439.33 435.35 Z" />
</g>
<g id="#f8f8f8ff">
<path fill="#f8f8f8" opacity="1.00" d=" M 775.83 492.78 C 805.94 475.08 836.15 457.55 866.13 439.63 C 897.21 441.64 928.32 443.55 959.46 444.56 C 941.71 470.48 924.12 496.52 906.54 522.55 C 905.18 524.15 902.94 524.51 901.14 525.38 C 843.02 548.76 785.00 572.37 726.88 595.76 C 686.65 612.01 646.50 628.44 606.07 644.20 C 601.02 646.19 596.01 648.28 590.97 650.33 C 590.30 650.21 588.94 649.97 588.26 649.85 C 588.02 647.72 591.35 647.30 592.80 646.26 C 603.01 642.60 612.76 637.82 622.88 633.90 C 637.34 628.18 651.33 621.36 665.87 615.83 C 677.50 611.32 688.65 605.66 700.39 601.42 C 707.97 598.57 715.34 595.20 722.68 591.79 C 731.38 588.04 740.22 584.60 748.98 580.97 C 763.62 574.44 778.59 568.70 793.27 562.26 C 828.59 547.48 863.82 532.46 899.35 518.21 C 901.29 517.28 902.59 515.50 903.85 513.83 C 917.30 494.52 931.79 475.85 943.14 455.17 C 927.15 462.12 911.10 468.94 895.26 476.24 C 888.80 478.82 882.68 482.34 875.91 484.06 C 894.52 472.62 914.84 463.96 932.61 451.17 C 927.44 450.43 922.22 450.34 917.02 450.24 C 902.70 449.59 888.39 448.78 874.07 448.22 C 871.12 448.20 867.95 447.75 865.24 449.19 C 854.54 454.65 844.53 461.36 833.83 466.82 C 816.40 476.26 799.44 486.54 782.02 496.00 C 767.46 503.61 753.59 512.45 738.99 519.98 C 727.68 526.37 716.72 533.40 705.04 539.13 C 694.76 544.80 684.79 551.05 674.34 556.42 C 665.67 560.84 657.70 566.49 649.06 570.96 C 640.01 575.33 631.38 580.52 622.75 585.67 C 615.36 590.06 607.43 593.47 600.18 598.10 C 589.36 604.36 578.19 610.01 567.43 616.38 C 566.90 615.77 566.38 615.16 565.87 614.55 C 635.86 573.98 706.21 534.01 775.83 492.78 Z" />
</g>
<g id="#d1d2d3ff">
<path fill="#d1d2d3" opacity="1.00" d=" M 865.24 449.19 C 867.95 447.75 871.12 448.20 874.07 448.22 C 888.39 448.78 902.70 449.59 917.02 450.24 C 922.22 450.34 927.44 450.43 932.61 451.17 C 914.84 463.96 894.52 472.62 875.91 484.06 C 882.68 482.34 888.80 478.82 895.26 476.24 C 911.10 468.94 927.15 462.12 943.14 455.17 C 931.79 475.85 917.30 494.52 903.85 513.83 C 902.59 515.50 901.29 517.28 899.35 518.21 C 863.82 532.46 828.59 547.48 793.27 562.26 C 778.59 568.70 763.62 574.44 748.98 580.97 C 740.22 584.60 731.38 588.04 722.68 591.79 C 715.34 595.20 707.97 598.57 700.39 601.42 C 688.65 605.66 677.50 611.32 665.87 615.83 C 651.33 621.36 637.34 628.18 622.88 633.90 C 612.76 637.82 603.01 642.60 592.80 646.26 C 596.75 637.71 602.09 629.90 606.38 621.54 C 641.56 603.54 677.27 586.59 712.43 568.54 C 746.99 551.17 781.32 533.34 815.77 515.74 C 835.20 505.58 854.91 495.94 874.06 485.25 C 843.73 498.80 813.92 513.48 784.07 528.07 C 747.78 545.75 711.44 563.32 675.28 581.25 C 647.13 594.71 618.98 608.19 591.15 622.31 C 583.55 619.19 575.29 618.39 567.43 616.38 C 578.19 610.01 589.36 604.36 600.18 598.10 C 607.43 593.47 615.36 590.06 622.75 585.67 C 631.38 580.52 640.01 575.33 649.06 570.96 C 657.70 566.49 665.67 560.84 674.34 556.42 C 684.79 551.05 694.76 544.80 705.04 539.13 C 716.72 533.40 727.68 526.37 738.99 519.98 C 753.59 512.45 767.46 503.61 782.02 496.00 C 799.44 486.54 816.40 476.26 833.83 466.82 C 844.53 461.36 854.54 454.65 865.24 449.19 Z" />
</g>
<g id="#f7f1c0ff">
<path fill="#f7f1c0" opacity="1.00" d=" M 405.43 449.02 C 409.57 458.33 417.44 465.56 420.49 475.38 C 422.41 481.47 422.35 487.94 421.29 494.18 C 419.35 495.12 417.41 496.06 415.46 496.98 C 415.21 494.92 414.94 492.85 414.78 490.79 C 416.37 483.39 412.89 475.97 408.05 470.53 C 404.57 464.87 400.80 459.36 397.74 453.46 C 400.34 452.04 402.90 450.56 405.43 449.02 Z" />
</g>
<g id="#fbf7dcff">
<path fill="#fbf7dc" opacity="1.00" d=" M 661.67 448.18 C 663.82 448.42 665.99 448.66 668.16 448.90 C 668.32 450.30 668.47 451.70 668.62 453.12 C 668.97 459.09 668.60 465.08 668.29 471.05 C 665.95 470.43 663.19 470.09 662.07 467.60 C 662.42 461.12 662.10 454.64 661.67 448.18 Z" />
</g>
<g id="#dd3d3aff">
<path fill="#dd3d3a" opacity="1.00" d=" M 516.19 465.93 C 527.43 459.72 543.14 461.60 551.66 471.60 C 551.68 471.80 551.70 472.21 551.72 472.42 C 540.22 478.71 524.60 476.16 516.19 465.93 Z" />
</g>
<g id="#859844ff">
<path fill="#859844" opacity="1.00" d=" M 624.14 502.14 C 635.94 490.66 645.24 476.95 653.45 462.76 C 653.79 471.72 653.61 480.83 651.47 489.59 C 650.02 494.33 647.70 499.63 642.96 501.84 C 636.76 502.92 630.39 502.24 624.14 502.14 Z" />
</g>
<g id="#f9e68eff">
<path fill="#f9e68e" opacity="1.00" d=" M 660.46 482.58 C 661.30 477.62 661.52 472.59 662.07 467.60 C 663.19 470.09 665.95 470.43 668.29 471.05 C 668.10 475.96 667.32 480.81 666.47 485.64 L 666.41 485.62 C 664.45 484.56 662.45 483.56 660.46 482.58 Z" />
</g>
<g id="#e5c74eff">
<path fill="#e5c74e" opacity="1.00" d=" M 408.05 470.53 C 412.89 475.97 416.37 483.39 414.78 490.79 C 414.54 494.05 411.98 499.24 416.12 500.93 C 416.59 501.18 417.53 501.69 418.00 501.94 C 413.26 507.33 405.88 509.13 399.02 509.87 C 387.45 510.98 375.69 510.19 364.43 507.22 C 363.97 504.66 363.49 502.11 363.01 499.56 C 373.38 502.49 384.35 503.56 395.05 502.07 C 400.44 501.22 406.54 499.41 409.40 494.34 C 412.89 486.72 411.26 477.94 408.05 470.53 Z" />
</g>
<g id="#e6c44bff">
<path fill="#e6c44b" opacity="1.00" d=" M 652.69 503.57 C 657.97 497.92 659.06 489.87 660.46 482.58 C 662.45 483.56 664.45 484.56 666.41 485.62 C 665.26 493.36 660.63 501.44 652.69 503.57 Z" />
</g>
<g id="#cfaf42ff">
<path fill="#cfaf42" opacity="1.00" d=" M 344.03 497.93 C 341.32 495.57 342.12 491.76 343.63 488.97 C 349.05 494.12 355.94 497.34 363.01 499.56 C 363.49 502.11 363.97 504.66 364.43 507.22 C 357.24 505.23 349.75 502.92 344.03 497.93 Z" />
</g>
<g id="#f7e280ff">
<path fill="#f7e280" opacity="1.00" d=" M 416.12 500.93 C 411.98 499.24 414.54 494.05 414.78 490.79 C 414.94 492.85 415.21 494.92 415.46 496.98 C 417.41 496.06 419.35 495.12 421.29 494.18 C 420.49 496.88 419.37 499.48 418.00 501.94 C 417.53 501.69 416.59 501.18 416.12 500.93 Z" />
</g>
<g id="#edac78ff">
<path fill="#edac78" opacity="1.00" d=" M 431.12 491.47 C 439.71 500.15 449.14 508.07 459.65 514.34 C 476.65 524.46 495.75 530.87 515.30 533.72 C 524.58 535.03 533.95 534.23 543.27 534.63 C 502.45 543.92 457.95 533.77 424.57 508.68 C 428.45 503.72 430.18 497.60 431.12 491.47 Z" />
</g>
<g id="#868585ff">
<path fill="#868585" opacity="1.00" d=" M 610.94 514.13 C 612.10 513.14 613.32 511.72 615.02 512.40 C 630.83 515.95 644.91 527.70 650.03 543.26 C 648.63 543.33 647.23 543.41 645.84 543.49 C 642.64 533.82 635.30 526.39 628.07 519.56 C 626.93 521.40 626.51 524.39 623.92 524.68 C 620.58 525.59 616.66 523.47 616.05 519.98 C 616.09 518.49 616.36 517.03 616.58 515.57 C 614.69 515.09 612.81 514.61 610.94 514.13 Z" />
<path fill="#868585" opacity="1.00" d=" M 580.08 812.79 C 580.84 812.75 582.35 812.67 583.10 812.64 C 589.11 814.39 594.53 818.79 597.05 824.58 C 591.44 820.57 586.30 815.91 580.08 812.79 Z" />
</g>
<g id="#5d5d5dff">
<path fill="#5d5d5d" opacity="1.00" d=" M 600.82 521.27 C 603.88 518.51 607.47 516.44 610.85 514.11 L 610.94 514.13 C 612.81 514.61 614.69 515.09 616.58 515.57 C 616.36 517.03 616.09 518.49 616.05 519.98 C 616.66 523.47 620.58 525.59 623.92 524.68 C 626.51 524.39 626.93 521.40 628.07 519.56 C 635.30 526.39 642.64 533.82 645.84 543.49 L 645.91 543.66 C 639.60 544.37 633.75 547.01 628.44 550.39 C 624.97 552.67 620.64 554.13 616.58 552.53 C 614.76 540.89 610.75 528.50 600.82 521.27 M 619.28 544.09 C 617.40 545.51 617.18 548.55 619.16 550.00 C 621.48 552.28 625.78 548.90 624.41 546.05 C 623.80 544.02 621.05 542.48 619.28 544.09 Z" />
</g>
<g id="#8d8d8dff">
<path fill="#8d8d8d" opacity="1.00" d=" M 397.45 519.83 C 400.99 519.09 404.50 518.14 408.09 517.67 C 411.64 518.81 414.57 521.23 417.55 523.38 C 423.47 528.04 428.87 533.51 432.89 539.91 C 429.95 548.14 430.83 557.06 432.99 565.36 L 431.33 565.26 C 428.52 560.38 429.21 554.41 428.79 549.00 C 428.40 544.82 430.29 539.59 426.52 536.50 C 418.56 528.48 408.07 523.35 397.45 519.83 Z" />
</g>
<g id="#e7cd55ff">
<path fill="#e7cd55" opacity="1.00" d=" M 420.85 518.92 C 427.48 522.78 434.16 526.54 440.88 530.25 L 440.78 530.44 C 440.36 531.24 439.96 532.04 439.56 532.85 C 440.03 534.81 440.92 536.91 439.89 538.87 C 434.75 531.18 428.19 524.52 420.85 518.92 Z" />
</g>
<g id="#605f60ff">
<path fill="#605f60" opacity="1.00" d=" M 389.86 521.63 C 392.35 520.94 394.84 519.81 397.45 519.83 C 408.07 523.35 418.56 528.48 426.52 536.50 C 430.29 539.59 428.40 544.82 428.79 549.00 C 429.21 554.41 428.52 560.38 431.33 565.26 L 431.66 565.82 C 427.70 567.66 423.44 569.07 419.02 568.82 C 406.54 568.45 393.84 568.68 381.80 572.33 C 379.23 570.86 379.14 567.64 378.74 565.07 C 377.85 556.83 377.65 548.28 380.37 540.34 C 382.69 533.71 386.37 527.68 389.86 521.63 M 396.29 524.32 C 391.79 525.66 387.34 530.99 390.28 535.66 C 395.18 541.27 406.39 535.32 404.06 528.00 C 403.38 524.53 399.32 523.32 396.29 524.32 M 421.13 557.21 C 418.59 558.29 417.94 562.16 420.37 563.73 C 422.77 566.30 427.36 563.29 426.49 560.10 C 426.04 557.71 423.36 556.41 421.13 557.21 Z" />
<path fill="#605f60" opacity="1.00" d=" M 638.80 641.05 C 643.30 639.31 647.81 637.58 652.33 635.91 C 649.94 644.93 643.52 652.56 635.28 656.87 C 637.71 651.94 638.96 646.55 638.80 641.05 Z" />
</g>
<g id="#4f4e4fff">
<path fill="#4f4e4f" opacity="1.00" d=" M 367.15 543.11 C 371.40 533.30 379.59 524.97 389.86 521.63 C 386.37 527.68 382.69 533.71 380.37 540.34 C 377.65 548.28 377.85 556.83 378.74 565.07 C 379.14 567.64 379.23 570.86 381.80 572.33 C 380.72 573.18 379.21 573.27 377.96 573.81 C 373.51 575.18 369.96 578.28 366.04 580.66 C 361.22 568.69 361.89 554.81 367.15 543.11 Z" />
</g>
<g id="#908f8fff">
<path fill="#908f8f" opacity="1.00" d=" M 396.29 524.32 C 399.32 523.32 403.38 524.53 404.06 528.00 C 406.39 535.32 395.18 541.27 390.28 535.66 C 387.34 530.99 391.79 525.66 396.29 524.32 Z" />
<path fill="#908f8f" opacity="1.00" d=" M 516.42 636.98 C 520.88 639.22 524.96 642.10 529.17 644.77 C 531.20 646.09 533.52 647.11 535.12 649.01 C 535.06 650.26 534.80 651.49 534.32 652.69 C 528.75 647.18 521.41 644.25 514.66 640.55 C 515.25 639.35 515.83 638.16 516.42 636.98 Z" />
</g>
<g id="#d9b849ff">
<path fill="#d9b849" opacity="1.00" d=" M 592.01 527.07 C 593.27 526.08 594.55 525.11 595.81 524.12 C 599.73 527.60 603.58 531.43 605.57 536.39 C 608.50 543.55 609.69 551.28 610.46 558.93 C 610.79 561.04 610.69 563.89 613.00 564.94 C 617.43 567.12 622.50 567.25 627.26 568.33 C 624.91 569.95 622.46 571.43 619.96 572.79 C 615.75 571.63 611.48 570.65 607.41 569.07 C 605.90 558.49 605.28 547.38 600.27 537.72 C 598.27 533.60 594.26 531.01 592.01 527.07 Z" />
</g>
<g id="#efd669ff">
<path fill="#efd669" opacity="1.00" d=" M 439.56 532.85 C 439.96 532.04 440.36 531.24 440.78 530.44 C 442.79 533.97 445.11 537.36 446.62 541.16 C 445.06 546.64 443.60 552.25 444.43 558.02 C 442.42 558.15 440.42 558.28 438.42 558.41 C 437.00 551.93 437.41 545.04 439.89 538.87 C 440.92 536.91 440.03 534.81 439.56 532.85 Z" />
</g>
<g id="#faeb8dff">
<path fill="#faeb8d" opacity="1.00" d=" M 571.64 536.80 C 575.73 535.06 579.67 533.01 583.76 531.29 C 582.61 534.89 579.20 537.00 576.56 539.46 C 568.68 545.36 559.76 549.86 550.39 552.85 C 550.12 550.86 550.17 548.84 550.32 546.84 C 551.85 546.21 553.41 545.63 555.00 545.14 C 561.21 544.08 567.62 541.96 571.64 536.80 Z" />
</g>
<g id="#ceab39ff">
<path fill="#ceab39" opacity="1.00" d=" M 453.13 535.00 C 477.96 546.30 505.92 549.59 532.91 546.67 C 533.51 547.47 534.11 548.27 534.72 549.08 C 531.08 549.96 527.46 550.87 523.81 551.69 C 518.57 553.00 513.05 552.97 508.00 555.01 C 506.62 555.29 505.22 554.80 503.87 554.64 C 490.51 552.10 477.10 549.09 464.63 543.53 C 460.28 541.46 454.98 539.97 453.13 535.00 Z" />
</g>
<g id="#eed55aff">
<path fill="#eed55a" opacity="1.00" d=" M 557.06 541.73 C 561.98 540.27 566.77 538.42 571.64 536.80 C 567.62 541.96 561.21 544.08 555.00 545.14 C 555.68 544.00 556.36 542.86 557.06 541.73 Z" />
</g>
<g id="#8f8f8eff">
<path fill="#8f8f8e" opacity="1.00" d=" M 588.61 536.47 C 590.37 538.73 592.43 540.90 593.23 543.74 C 597.11 556.87 597.77 570.63 599.93 584.08 C 595.78 586.64 591.59 589.13 587.36 591.56 C 589.80 586.85 596.74 584.20 595.33 578.03 C 593.88 565.27 591.36 552.40 585.68 540.79 C 586.71 539.38 587.67 537.93 588.61 536.47 Z" />
</g>
<g id="#5f5e5fff">
<path fill="#5f5e5f" opacity="1.00" d=" M 575.23 549.29 C 579.07 546.91 582.20 543.63 585.68 540.79 C 591.36 552.40 593.88 565.27 595.33 578.03 C 596.74 584.20 589.80 586.85 587.36 591.56 L 587.16 591.86 C 580.83 596.32 573.80 599.65 567.00 603.31 C 559.78 593.48 556.18 581.17 556.84 569.00 C 557.30 566.00 555.35 562.56 551.99 562.79 C 547.13 563.02 543.11 566.25 539.00 568.52 C 538.69 567.17 538.40 565.85 538.10 564.52 C 550.96 560.78 563.89 556.58 575.23 549.29 M 582.27 548.28 C 578.26 548.93 577.17 554.06 578.67 557.29 C 580.52 560.72 586.35 560.50 587.84 556.83 C 590.39 553.03 587.13 546.82 582.27 548.28 Z" />
</g>
<g id="#d8b942ff">
<path fill="#d8b942" opacity="1.00" d=" M 532.91 546.67 C 541.10 545.80 549.13 543.91 557.06 541.73 C 556.36 542.86 555.68 544.00 555.00 545.14 C 553.41 545.63 551.85 546.21 550.32 546.84 C 546.17 548.59 542.10 550.54 537.83 551.99 C 533.16 552.86 528.49 551.40 523.81 551.69 C 527.46 550.87 531.08 549.96 534.72 549.08 C 534.11 548.27 533.51 547.47 532.91 546.67 Z" />
</g>
<g id="#040304ff">
<path fill="#040304" opacity="1.00" d=" M 619.28 544.09 C 621.05 542.48 623.80 544.02 624.41 546.05 C 625.78 548.90 621.48 552.28 619.16 550.00 C 617.18 548.55 617.40 545.51 619.28 544.09 Z" />
</g>
<g id="#4a4949ff">
<path fill="#4a4949" opacity="1.00" d=" M 453.82 546.45 C 456.13 547.47 458.43 548.54 460.71 549.65 C 461.11 554.72 462.10 559.72 463.46 564.61 C 465.36 571.57 466.68 578.95 470.99 584.93 C 473.12 587.82 475.00 590.89 476.36 594.23 C 470.29 590.78 467.19 584.17 462.83 579.00 C 459.37 575.25 458.54 570.09 456.36 565.64 C 453.71 559.70 450.76 552.84 453.82 546.45 Z" />
</g>
<g id="#f6e271ff">
<path fill="#f6e271" opacity="1.00" d=" M 537.83 551.99 C 542.10 550.54 546.17 548.59 550.32 546.84 C 550.17 548.84 550.12 550.86 550.39 552.85 L 550.41 553.07 C 545.15 554.75 539.97 556.70 534.56 557.85 C 535.62 555.87 536.71 553.92 537.83 551.99 Z" />
</g>
<g id="#8f8e8eff">
<path fill="#8f8e8e" opacity="1.00" d=" M 582.27 548.28 C 587.13 546.82 590.39 553.03 587.84 556.83 C 586.35 560.50 580.52 560.72 578.67 557.29 C 577.17 554.06 578.26 548.93 582.27 548.28 Z" />
</g>
<g id="#a8a6a6ff">
<path fill="#a8a6a6" opacity="1.00" d=" M 645.27 548.46 C 647.27 548.20 649.28 548.61 651.29 548.75 C 651.74 550.57 652.20 552.41 652.64 554.26 C 651.68 554.80 650.74 555.35 649.80 555.91 C 649.43 553.79 649.06 551.67 648.69 549.56 C 647.60 549.20 646.51 548.85 645.42 548.52 L 645.27 548.46 Z" />
</g>
<g id="#616160ff">
<path fill="#616160" opacity="1.00" d=" M 629.61 554.61 C 634.36 552.12 639.32 550.08 644.46 548.56 L 645.42 548.52 C 646.51 548.85 647.60 549.20 648.69 549.56 C 649.06 551.67 649.43 553.79 649.80 555.91 C 645.88 558.22 642.19 561.02 637.95 562.69 C 630.96 563.22 623.94 562.04 617.29 559.92 C 617.15 559.10 616.89 557.47 616.75 556.65 C 621.11 556.74 625.66 556.72 629.61 554.61 Z" />
</g>
<g id="#5f5e5eff">
<path fill="#5f5e5e" opacity="1.00" d=" M 460.71 549.65 C 482.56 559.33 506.44 563.46 530.18 564.85 C 531.28 568.32 531.96 571.91 532.32 575.54 C 527.48 581.37 522.67 588.08 522.72 596.00 C 523.03 602.20 526.32 607.70 529.00 613.14 C 518.88 610.38 508.60 608.26 498.24 606.67 C 490.51 605.77 487.15 594.97 478.78 596.40 C 477.97 595.67 476.95 595.13 476.36 594.23 C 475.00 590.89 473.12 587.82 470.99 584.93 C 466.68 578.95 465.36 571.57 463.46 564.61 C 462.10 559.72 461.11 554.72 460.71 549.65 Z" />
</g>
<g id="#ecd359ff">
<path fill="#ecd359" opacity="1.00" d=" M 508.00 555.01 C 513.05 552.97 518.57 553.00 523.81 551.69 C 528.49 551.40 533.16 552.86 537.83 551.99 C 536.71 553.92 535.62 555.87 534.56 557.85 C 525.69 557.13 516.74 556.79 508.00 555.01 Z" />
</g>
<g id="#0a0a0bff">
<path fill="#0a0a0b" opacity="1.00" d=" M 421.13 557.21 C 423.36 556.41 426.04 557.71 426.49 560.10 C 427.36 563.29 422.77 566.30 420.37 563.73 C 417.94 562.16 418.59 558.29 421.13 557.21 Z" />
</g>
<g id="#eed056ff">
<path fill="#eed056" opacity="1.00" d=" M 438.42 558.41 C 440.42 558.28 442.42 558.15 444.43 558.02 C 445.89 564.29 448.60 570.12 451.19 575.97 C 436.67 588.03 419.62 596.68 402.43 604.27 C 400.62 602.15 398.76 600.07 396.86 598.04 C 407.86 593.63 418.77 588.89 428.98 582.85 C 433.63 580.05 438.53 577.36 441.96 573.03 C 440.96 568.11 439.43 563.32 438.42 558.41 Z" />
</g>
<g id="#b6b6afff">
<path fill="#b6b6af" opacity="1.00" d=" M 530.18 564.85 C 531.01 564.82 532.67 564.78 533.50 564.76 C 534.04 567.34 534.98 569.95 534.80 572.63 C 534.02 573.64 533.19 574.61 532.32 575.54 C 531.96 571.91 531.28 568.32 530.18 564.85 Z" />
</g>
<g id="#636362ff">
<path fill="#636362" opacity="1.00" d=" M 433.76 568.23 C 434.26 569.37 434.75 570.52 435.25 571.68 C 425.78 577.83 415.45 582.46 405.31 587.37 C 400.34 589.72 395.14 591.52 389.98 593.38 C 386.77 588.71 384.22 583.64 381.73 578.57 C 393.60 574.07 406.43 574.30 418.89 573.28 C 424.20 572.92 429.27 571.03 433.76 568.23 Z" />
</g>
<g id="#f1e579ff">
<path fill="#f1e579" opacity="1.00" d=" M 546.38 573.03 C 547.46 572.35 548.56 571.70 549.66 571.04 C 549.95 577.78 550.44 584.68 552.98 591.01 C 555.15 596.82 558.30 602.20 561.54 607.47 C 560.72 608.25 559.90 609.04 559.09 609.84 C 555.01 603.99 551.62 597.63 549.20 590.92 C 547.07 585.20 546.81 579.05 546.38 573.03 Z" />
</g>
<g id="#fdf195ff">
<path fill="#fdf195" opacity="1.00" d=" M 536.97 582.11 C 538.63 580.24 540.28 578.37 542.01 576.57 C 542.40 580.86 543.00 585.14 543.30 589.44 C 541.18 587.00 539.00 584.62 536.97 582.11 Z" />
</g>
<g id="#414442ff">
<path fill="#414442" opacity="1.00" d=" M 608.38 578.07 C 611.37 576.56 608.50 581.40 608.38 578.07 Z" />
</g>
<g id="#525352ff">
<path fill="#525352" opacity="1.00" d=" M 369.26 586.93 C 372.33 582.86 377.29 580.81 381.73 578.57 C 384.22 583.64 386.77 588.71 389.98 593.38 C 385.23 595.07 380.49 596.81 375.79 598.65 C 373.01 595.13 370.63 591.22 369.26 586.93 Z" />
</g>
<g id="#e7c848ff">
<path fill="#e7c848" opacity="1.00" d=" M 531.68 591.30 C 533.28 588.15 534.95 585.02 536.97 582.11 C 539.00 584.62 541.18 587.00 543.30 589.44 C 547.49 601.58 553.87 613.12 562.68 622.53 C 561.50 624.24 560.43 626.03 559.45 627.86 C 557.68 627.20 555.91 626.54 554.10 626.03 C 552.23 625.37 549.83 625.28 548.83 623.30 C 542.38 613.04 537.51 601.90 531.68 591.30 Z" />
</g>
<g id="#3195dbff">
<path fill="#3195db" opacity="1.00" d=" M 417.93 607.13 C 431.14 600.83 443.94 593.44 455.33 584.21 C 456.94 586.14 458.44 588.18 459.87 590.26 C 445.97 595.68 434.39 606.96 429.31 621.07 C 425.95 616.08 421.69 611.80 417.93 607.13 Z" />
</g>
<g id="#cea537ff">
<path fill="#cea537" opacity="1.00" d=" M 531.68 591.30 C 537.51 601.90 542.38 613.04 548.83 623.30 C 549.83 625.28 552.23 625.37 554.10 626.03 C 549.82 624.32 547.99 628.80 546.91 632.02 C 542.06 620.74 536.15 609.95 531.40 598.63 C 530.06 596.27 531.03 593.69 531.68 591.30 Z" />
</g>
<g id="#6b5442ff">
<path fill="#6b5442" opacity="1.00" d=" M 436.67 627.46 C 440.45 613.23 452.27 601.94 465.92 597.03 C 466.95 598.02 467.98 599.01 469.03 600.02 C 456.26 607.92 447.56 621.09 443.05 635.21 C 441.36 632.29 439.26 629.62 436.67 627.46 Z" />
</g>
<g id="#cfaa3bff">
<path fill="#cfaa3b" opacity="1.00" d=" M 380.04 604.35 C 385.68 602.31 391.41 600.55 396.86 598.04 C 398.76 600.07 400.62 602.15 402.43 604.27 C 396.06 606.62 389.84 609.52 383.19 611.00 C 382.04 608.82 380.99 606.61 380.04 604.35 Z" />
</g>
<g id="#888888ff">
<path fill="#888888" opacity="1.00" d=" M 472.28 608.44 C 474.44 607.16 476.67 606.00 478.94 604.93 C 490.53 613.34 501.17 622.98 511.57 632.80 C 511.14 634.05 510.72 635.30 510.31 636.57 C 497.74 627.05 484.83 617.98 472.28 608.44 Z" />
</g>
<g id="#2582c9ff">
<path fill="#2582c9" opacity="1.00" d=" M 407.93 611.69 C 411.28 610.22 414.62 608.71 417.93 607.13 C 421.69 611.80 425.95 616.08 429.31 621.07 C 428.18 624.35 427.38 627.73 426.97 631.18 C 419.86 625.51 413.17 619.15 407.93 611.69 Z" />
</g>
<g id="#5f5f5fff">
<path fill="#5f5f5f" opacity="1.00" d=" M 452.57 634.18 C 456.62 623.96 463.42 614.96 472.28 608.44 C 484.83 617.98 497.74 627.05 510.31 636.57 C 507.20 643.87 504.04 651.36 498.74 657.38 C 484.38 651.07 468.72 647.33 455.64 638.35 C 454.10 637.40 453.03 635.91 452.57 634.18 Z" />
</g>
<g id="#575657ff">
<path fill="#575657" opacity="1.00" d=" M 504.77 614.03 C 513.62 615.12 522.45 616.44 531.28 617.71 C 533.09 621.50 535.00 625.25 536.92 629.00 C 531.11 627.23 524.99 627.17 518.97 627.11 C 514.60 622.35 509.60 618.29 504.77 614.03 Z" />
</g>
<g id="#514f4eff">
<path fill="#514f4e" opacity="1.00" d=" M 403.07 619.96 C 407.59 625.77 412.91 630.83 418.12 636.01 C 413.56 634.98 409.04 633.74 404.60 632.30 C 403.95 628.20 403.34 624.10 403.07 619.96 Z" />
</g>
<g id="#b8b7b8ff">
<path fill="#b8b7b8" opacity="1.00" d=" M 594.63 627.17 C 598.51 625.23 602.42 623.35 606.38 621.54 C 602.09 629.90 596.75 637.71 592.80 646.26 C 591.35 647.30 588.02 647.72 588.26 649.85 C 588.94 649.97 590.30 650.21 590.97 650.33 C 589.59 650.86 588.21 651.40 586.81 651.90 C 586.23 649.85 587.12 647.80 587.88 645.93 C 590.65 639.89 593.08 633.65 594.63 627.17 Z" />
</g>
<g id="#f0d865ff">
<path fill="#f0d865" opacity="1.00" d=" M 559.45 627.86 C 560.43 626.03 561.50 624.24 562.68 622.53 C 565.58 624.32 569.10 624.25 572.31 625.13 C 570.17 625.14 568.04 625.24 565.91 625.33 C 566.13 625.80 566.57 626.74 566.79 627.21 C 572.10 629.06 577.78 630.04 583.39 629.12 C 582.58 628.42 581.76 627.74 580.94 627.08 C 582.84 627.49 584.71 628.07 586.54 628.73 C 584.69 634.11 582.99 639.59 580.36 644.65 C 580.23 639.49 582.76 634.80 583.37 629.74 C 581.51 630.25 579.66 630.78 577.81 631.31 C 577.57 632.23 577.33 633.16 577.10 634.09 C 576.20 634.38 575.31 634.68 574.43 634.98 C 569.91 631.70 564.50 630.08 559.45 627.86 Z" />
</g>
<g id="#faf4d3ff">
<path fill="#faf4d3" opacity="1.00" d=" M 565.91 625.33 C 568.04 625.24 570.17 625.14 572.31 625.13 C 575.25 625.36 578.12 626.22 580.94 627.08 C 581.76 627.74 582.58 628.42 583.39 629.12 C 577.78 630.04 572.10 629.06 566.79 627.21 C 566.57 626.74 566.13 625.80 565.91 625.33 Z" />
</g>
<g id="#584637ff">
<path fill="#584637" opacity="1.00" d=" M 436.67 627.46 C 439.26 629.62 441.36 632.29 443.05 635.21 C 442.63 637.29 442.27 639.38 441.92 641.48 C 439.79 640.39 437.58 639.42 435.73 637.90 C 434.96 634.45 436.23 630.90 436.67 627.46 Z" />
</g>
<g id="#e7c84cff">
<path fill="#e7c84c" opacity="1.00" d=" M 577.81 631.31 C 579.66 630.78 581.51 630.25 583.37 629.74 C 582.76 634.80 580.23 639.49 580.36 644.65 C 580.14 646.51 579.15 648.17 578.57 649.94 C 580.25 653.59 581.04 657.49 581.53 661.44 C 584.94 668.18 588.78 674.73 593.02 680.99 C 596.87 686.67 602.30 691.02 608.03 694.70 C 602.88 695.82 597.65 696.57 592.37 696.48 C 586.26 690.40 581.47 683.21 577.41 675.64 C 574.67 670.68 572.29 665.54 569.95 660.39 C 571.31 658.43 572.17 656.19 572.41 653.81 C 573.25 647.56 574.51 641.32 574.43 634.98 C 575.31 634.68 576.20 634.38 577.10 634.09 C 577.33 633.16 577.57 632.23 577.81 631.31 Z" />
</g>
<g id="#4b4b4aff">
<path fill="#4b4b4a" opacity="1.00" d=" M 449.45 649.23 C 449.90 644.10 450.84 639.03 452.57 634.18 C 453.03 635.91 454.10 637.40 455.64 638.35 C 468.72 647.33 484.38 651.07 498.74 657.38 C 499.03 657.54 499.61 657.87 499.90 658.04 C 505.57 662.08 508.93 668.97 515.71 671.50 C 513.54 672.23 511.34 674.10 508.99 673.49 C 504.19 670.98 501.50 666.02 497.51 662.56 C 486.20 660.88 475.04 658.15 464.04 654.98 C 459.09 653.31 453.97 651.92 449.45 649.23 Z" />
</g>
<g id="#f2e37fff">
<path fill="#f2e37f" opacity="1.00" d=" M 553.36 635.32 C 553.61 634.82 554.11 633.81 554.36 633.30 C 558.91 635.35 564.57 636.03 567.88 640.08 L 567.02 640.53 C 564.21 642.09 561.15 643.17 557.99 643.72 C 557.35 642.34 556.75 640.95 556.19 639.56 C 557.77 639.59 559.36 639.65 560.96 639.72 C 558.13 638.82 555.41 637.51 553.36 635.32 Z" />
</g>
<g id="#cfa737ff">
<path fill="#cfa737" opacity="1.00" d=" M 553.11 635.09 L 553.36 635.32 C 555.41 637.51 558.13 638.82 560.96 639.72 C 559.36 639.65 557.77 639.59 556.19 639.56 C 556.75 640.95 557.35 642.34 557.99 643.72 C 559.82 646.37 561.70 649.04 562.58 652.20 C 555.42 650.09 551.46 642.21 553.11 635.09 Z" />
</g>
<g id="#f7d0a0ff">
<path fill="#f7d0a0" opacity="1.00" d=" M 542.02 639.50 C 542.84 640.75 543.74 641.95 544.69 643.13 C 543.63 642.18 542.56 641.27 541.48 640.38 C 541.62 640.16 541.88 639.72 542.02 639.50 Z" />
<path fill="#f7d0a0" opacity="1.00" d=" M 543.17 652.98 C 546.35 656.08 551.35 658.23 552.32 662.93 C 552.06 669.23 546.55 673.69 541.36 676.39 C 534.36 679.72 526.33 681.84 518.62 679.95 C 520.59 678.01 523.13 676.85 525.36 675.26 C 533.35 669.83 539.57 661.93 543.17 652.98 Z" />
</g>
<g id="#4b382aff">
<path fill="#4b382a" opacity="1.00" d=" M 398.76 639.60 C 406.96 642.57 415.48 644.56 424.00 646.40 C 422.59 647.08 420.73 647.41 420.04 649.00 C 417.11 654.89 416.77 661.73 417.53 668.17 C 411.43 667.10 405.58 665.01 399.60 663.48 C 398.45 663.00 396.24 662.87 396.65 661.06 C 396.70 653.87 397.37 646.66 398.76 639.60 Z" />
</g>
<g id="#60605fff">
<path fill="#60605f" opacity="1.00" d=" M 499.90 658.04 C 505.69 652.99 510.69 647.13 514.66 640.55 C 521.41 644.25 528.75 647.18 534.32 652.69 C 529.78 660.35 523.15 666.67 515.71 671.50 C 508.93 668.97 505.57 662.08 499.90 658.04 Z" />
</g>
<g id="#ecce5dff">
<path fill="#ecce5d" opacity="1.00" d=" M 557.99 643.72 C 561.15 643.17 564.21 642.09 567.02 640.53 C 566.76 644.71 566.01 648.84 565.03 652.91 C 564.45 652.80 563.27 652.57 562.68 652.46 L 562.58 652.20 C 561.70 649.04 559.82 646.37 557.99 643.72 Z" />
</g>
<g id="#ecb383ff">
<path fill="#ecb383" opacity="1.00" d=" M 614.61 650.52 C 619.82 648.53 624.87 646.12 630.20 644.45 C 628.75 654.58 619.00 662.23 608.95 662.12 C 605.01 661.97 601.14 660.21 599.01 656.79 C 604.04 654.30 609.44 652.69 614.61 650.52 Z" />
</g>
<g id="#5d4938ff">
<path fill="#5d4938" opacity="1.00" d=" M 420.04 649.00 C 420.73 647.41 422.59 647.08 424.00 646.40 L 424.39 646.96 C 425.45 648.37 425.97 650.39 427.70 651.19 C 433.00 653.69 438.39 656.26 444.26 657.08 C 457.08 662.59 470.53 666.82 484.27 669.38 C 483.10 670.16 481.97 671.00 480.69 671.59 C 476.46 671.62 472.22 669.99 468.03 671.27 C 465.03 671.66 462.71 673.81 459.91 674.66 C 445.61 673.94 431.53 671.01 417.53 668.17 C 416.77 661.73 417.11 654.89 420.04 649.00 Z" />
</g>
<g id="#48382aff">
<path fill="#48382a" opacity="1.00" d=" M 424.39 646.96 C 429.95 647.37 435.58 648.72 440.37 651.65 C 442.05 653.14 443.04 655.22 444.26 657.08 C 438.39 656.26 433.00 653.69 427.70 651.19 C 425.97 650.39 425.45 648.37 424.39 646.96 Z" />
</g>
<g id="#c2992eff">
<path fill="#c2992e" opacity="1.00" d=" M 572.32 675.79 C 569.24 670.41 566.43 664.89 563.13 659.64 C 565.35 660.25 567.65 660.44 569.95 660.39 C 572.29 665.54 574.67 670.68 577.41 675.64 C 576.37 675.27 575.35 674.92 574.33 674.56 C 573.83 674.87 572.83 675.48 572.32 675.79 Z" />
</g>
<g id="#e7d867ff">
<path fill="#e7d867" opacity="1.00" d=" M 587.22 661.20 C 588.41 660.85 589.61 660.51 590.81 660.17 C 594.70 667.74 598.43 675.54 604.20 681.90 C 607.51 685.73 611.73 688.59 615.85 691.47 C 615.15 691.96 614.47 692.46 613.79 692.97 C 607.87 689.62 602.00 685.68 598.07 680.00 C 593.85 674.10 590.17 667.82 587.22 661.20 Z" />
</g>
<g id="#c5c7c5ff">
<path fill="#c5c7c5" opacity="1.00" d=" M 549.97 680.70 C 553.83 678.07 557.32 674.91 559.73 670.86 C 560.74 672.91 561.70 674.99 562.59 677.11 C 558.65 679.14 554.20 679.60 549.97 680.70 Z" />
</g>
<g id="#4e4d4dff">
<path fill="#4e4d4d" opacity="1.00" d=" M 398.08 672.34 C 404.98 674.46 411.99 676.18 419.03 677.77 C 414.61 685.81 411.59 694.49 409.50 703.41 C 402.66 701.47 395.79 699.68 388.97 697.73 C 391.30 689.04 394.44 680.56 398.08 672.34 Z" />
</g>
<g id="#9c9c9aff">
<path fill="#9c9c9a" opacity="1.00" d=" M 616.04 672.58 C 617.11 672.19 618.18 671.80 619.26 671.41 C 622.61 679.13 625.88 686.91 628.50 694.92 C 625.47 696.52 622.33 697.95 619.04 698.95 C 621.83 697.39 625.37 695.62 625.63 691.99 C 625.65 689.34 623.61 687.61 621.60 686.30 L 621.51 686.08 C 619.79 681.53 617.86 677.08 616.04 672.58 Z" />
</g>
<g id="#504549ff">
<path fill="#504549" opacity="1.00" d=" M 500.04 682.99 C 497.17 680.14 493.31 676.42 494.69 671.96 C 497.81 675.95 501.51 679.40 505.82 682.08 C 504.04 682.70 501.68 685.10 500.04 682.99 Z" />
</g>
<g id="#626162ff">
<path fill="#626162" opacity="1.00" d=" M 607.90 675.73 C 610.53 674.48 613.25 673.44 616.04 672.58 C 617.86 677.08 619.79 681.53 621.51 686.08 C 615.98 684.24 611.82 679.84 607.90 675.73 Z" />
</g>
<g id="#cda737ff">
<path fill="#cda737" opacity="1.00" d=" M 574.33 674.56 C 575.35 674.92 576.37 675.27 577.41 675.64 C 581.47 683.21 586.26 690.40 592.37 696.48 C 588.80 696.24 585.06 695.12 582.77 692.19 C 578.70 687.13 575.50 681.43 572.32 675.79 C 572.83 675.48 573.83 674.87 574.33 674.56 Z" />
</g>
<g id="#584c4bff">
<path fill="#584c4b" opacity="1.00" d=" M 483.29 678.85 C 485.34 677.50 487.42 676.20 489.54 674.96 C 490.86 679.57 493.29 683.82 497.15 686.78 C 494.78 687.96 492.41 689.13 490.02 690.27 C 486.50 687.38 483.98 683.37 483.29 678.85 Z" />
</g>
<g id="#616161ff">
<path fill="#616161" opacity="1.00" d=" M 419.03 677.77 C 430.40 680.04 441.87 681.87 453.40 683.18 C 452.12 687.80 451.03 692.70 452.39 697.45 C 453.81 703.75 458.63 708.66 464.13 711.72 C 445.73 710.54 427.41 707.73 409.50 703.41 C 411.59 694.49 414.61 685.81 419.03 677.77 Z" />
</g>
<g id="#f1e494ff">
<path fill="#f1e494" opacity="1.00" d=" M 463.22 683.38 C 465.10 681.80 466.83 679.94 469.14 678.98 C 471.15 678.38 473.27 678.75 475.34 678.81 C 474.99 679.12 474.31 679.74 473.96 680.05 C 474.48 682.52 473.34 684.75 472.11 686.81 C 469.55 684.79 466.45 683.67 463.22 683.38 Z" />
</g>
<g id="#f5ecbaff">
<path fill="#f5ecba" opacity="1.00" d=" M 475.34 678.81 C 476.74 679.19 476.32 680.83 476.73 681.89 C 477.23 685.51 479.58 688.45 481.47 691.46 C 480.36 692.43 479.25 693.41 478.15 694.40 C 477.58 694.08 476.44 693.42 475.86 693.10 C 474.74 690.93 473.52 688.80 472.11 686.81 C 473.34 684.75 474.48 682.52 473.96 680.05 C 474.31 679.74 474.99 679.12 475.34 678.81 Z" />
</g>
<g id="#e4c446ff">
<path fill="#e4c446" opacity="1.00" d=" M 463.22 683.38 C 466.45 683.67 469.55 684.79 472.11 686.81 C 473.52 688.80 474.74 690.93 475.86 693.10 C 476.39 694.11 476.94 695.11 477.53 696.10 C 471.90 698.72 465.86 696.89 460.40 694.85 C 460.07 690.81 460.87 686.73 463.22 683.38 Z" />
</g>
<g id="#e3c144ff">
<path fill="#e3c144" opacity="1.00" d=" M 557.78 688.34 C 559.82 687.81 561.86 687.28 563.88 686.69 C 568.75 694.24 573.54 701.85 578.72 709.21 C 580.09 710.92 581.49 713.39 584.03 713.28 C 591.82 713.14 599.51 711.45 607.08 709.69 C 608.20 711.36 609.33 713.03 610.46 714.71 C 599.82 717.57 589.00 719.83 578.04 721.08 C 571.33 710.14 564.79 699.10 557.78 688.34 Z" />
</g>
<g id="#49382bff">
<path fill="#49382b" opacity="1.00" d=" M 516.00 691.16 C 526.59 691.56 537.21 691.39 547.75 690.31 C 552.21 696.29 555.90 702.79 560.14 708.92 C 563.90 714.58 566.84 720.74 570.56 726.43 C 571.95 728.61 574.11 730.87 576.97 730.40 C 588.22 729.59 599.19 726.79 610.22 724.60 C 610.13 729.76 610.01 734.94 609.30 740.06 C 609.33 736.70 609.11 733.35 608.90 730.01 C 596.27 731.15 583.88 734.35 571.18 734.94 C 566.34 729.39 562.70 722.95 559.64 716.29 C 556.22 709.79 552.65 703.34 548.71 697.14 C 538.11 696.68 527.42 696.93 517.00 699.05 C 515.17 699.24 514.31 701.04 513.33 702.35 C 508.41 709.97 505.31 718.61 500.08 726.04 C 497.17 730.07 494.59 734.55 490.59 737.62 C 485.82 740.02 480.26 739.88 475.07 740.42 C 455.74 741.91 436.44 739.29 417.13 739.08 C 415.37 746.60 415.30 755.11 420.06 761.59 C 421.30 766.17 423.28 770.58 426.71 773.96 C 422.68 773.03 418.20 772.95 414.82 770.28 C 410.22 766.91 405.48 763.54 401.86 759.09 C 400.20 757.10 400.72 754.36 400.76 752.00 C 401.43 742.94 402.47 733.93 403.28 724.89 C 420.31 728.96 437.60 731.90 454.98 734.03 C 464.95 735.07 475.00 735.97 485.02 735.26 C 489.49 734.95 492.28 730.95 494.66 727.63 C 500.40 719.48 504.38 710.29 509.88 702.00 C 512.14 698.51 513.94 694.76 516.00 691.16 Z" />
</g>
<g id="#efd769ff">
<path fill="#efd769" opacity="1.00" d=" M 481.47 691.46 C 483.18 693.43 485.04 695.28 487.01 697.01 C 485.88 699.30 484.60 701.52 483.13 703.62 C 481.40 701.00 479.44 698.57 477.53 696.10 C 476.94 695.11 476.39 694.11 475.86 693.10 C 476.44 693.42 477.58 694.08 478.15 694.40 C 479.25 693.41 480.36 692.43 481.47 691.46 Z" />
</g>
<g id="#e7c649ff">
<path fill="#e7c649" opacity="1.00" d=" M 496.16 696.18 C 499.26 694.39 502.58 693.01 505.72 691.28 C 498.49 703.16 491.78 715.38 483.91 726.85 C 458.32 726.47 432.86 722.64 408.03 716.55 C 408.07 714.21 408.11 711.88 408.15 709.55 C 428.39 714.77 449.23 717.11 470.04 718.49 C 473.65 718.61 477.30 718.96 480.91 718.49 C 483.23 717.63 484.02 715.04 485.20 713.10 C 486.57 710.30 489.75 709.05 491.31 706.37 C 493.64 703.33 494.11 699.32 496.16 696.18 Z" />
</g>
<g id="#d3ab3fff">
<path fill="#d3ab3f" opacity="1.00" d=" M 460.40 694.85 C 465.86 696.89 471.90 698.72 477.53 696.10 C 479.44 698.57 481.40 701.00 483.13 703.62 C 477.53 706.90 469.73 706.78 464.85 702.22 C 462.59 700.32 461.35 697.57 460.40 694.85 Z" />
</g>
<g id="#584739ff">
<path fill="#584739" opacity="1.00" d=" M 517.00 699.05 C 527.42 696.93 538.11 696.68 548.71 697.14 C 552.65 703.34 556.22 709.79 559.64 716.29 C 562.70 722.95 566.34 729.39 571.18 734.94 C 583.88 734.35 596.27 731.15 608.90 730.01 C 609.11 733.35 609.33 736.70 609.30 740.06 C 608.56 746.37 608.05 753.10 604.81 758.72 C 601.53 763.89 595.77 766.91 589.88 768.05 C 590.32 765.29 590.91 762.56 591.54 759.85 C 588.31 762.52 585.32 765.56 581.64 767.66 C 577.32 770.50 571.90 770.21 566.95 770.46 C 559.04 770.72 552.19 766.11 546.04 761.69 C 547.59 764.79 549.57 767.65 551.49 770.54 C 548.56 770.35 545.66 769.96 542.76 769.53 C 543.48 768.66 544.20 767.80 544.93 766.95 C 541.38 759.61 537.13 752.47 535.59 744.34 C 534.73 739.08 532.18 733.73 533.35 728.37 C 536.70 724.23 541.72 721.90 545.67 718.37 C 545.20 717.97 544.27 717.17 543.81 716.77 C 546.35 716.12 548.88 715.45 551.36 714.58 C 539.25 712.16 527.04 715.48 515.09 717.28 C 513.06 717.17 512.36 719.22 511.65 720.72 C 506.90 731.68 502.73 742.89 497.73 753.74 C 495.10 758.83 492.78 764.52 487.82 767.81 C 481.60 772.08 474.94 777.01 466.96 776.43 C 469.73 773.04 472.93 769.89 474.53 765.72 C 466.35 771.37 457.09 776.11 446.97 776.51 C 441.19 776.67 436.12 773.52 431.32 770.72 C 427.16 768.22 423.64 764.83 420.06 761.59 C 415.30 755.11 415.37 746.60 417.13 739.08 C 436.44 739.29 455.74 741.91 475.07 740.42 C 480.26 739.88 485.82 740.02 490.59 737.62 C 494.59 734.55 497.17 730.07 500.08 726.04 C 505.31 718.61 508.41 709.97 513.33 702.35 C 514.31 701.04 515.17 699.24 517.00 699.05 Z" />
</g>
<g id="#f6e487ff">
<path fill="#f6e487" opacity="1.00" d=" M 616.81 706.70 C 621.62 705.20 626.08 702.82 630.69 700.85 C 631.12 702.60 631.53 704.38 631.92 706.16 C 627.82 708.66 623.28 710.31 618.77 711.92 C 618.11 710.17 617.46 708.43 616.81 706.70 Z" />
</g>
<g id="#5d5d5bff">
<path fill="#5d5d5b" opacity="1.00" d=" M 580.12 701.15 C 585.41 703.86 591.18 705.60 597.17 705.49 C 593.08 706.11 589.06 707.11 584.94 707.49 C 582.75 705.90 581.60 703.32 580.12 701.15 Z" />
</g>
<g id="#c9a638ff">
<path fill="#c9a638" opacity="1.00" d=" M 386.99 703.43 C 393.95 705.80 400.98 707.92 408.15 709.55 C 408.11 711.88 408.07 714.21 408.03 716.55 C 400.35 714.64 392.61 712.68 385.40 709.40 C 385.94 707.40 386.48 705.42 386.99 703.43 Z" />
</g>
<g id="#efd56aff">
<path fill="#efd56a" opacity="1.00" d=" M 607.08 709.69 C 610.35 708.79 613.58 707.74 616.81 706.70 C 617.46 708.43 618.11 710.17 618.77 711.92 L 618.82 712.05 C 616.04 712.96 613.26 713.88 610.46 714.71 C 609.33 713.03 608.20 711.36 607.08 709.69 Z" />
</g>
<g id="#4a3a2cff">
<path fill="#4a3a2c" opacity="1.00" d=" M 520.64 723.71 C 528.08 720.58 536.10 719.11 543.81 716.77 C 544.27 717.17 545.20 717.97 545.67 718.37 C 541.72 721.90 536.70 724.23 533.35 728.37 C 532.18 733.73 534.73 739.08 535.59 744.34 C 537.13 752.47 541.38 759.61 544.93 766.95 C 544.20 767.80 543.48 768.66 542.76 769.53 C 536.96 768.79 530.63 766.62 526.85 761.98 C 523.00 752.03 522.28 741.20 519.31 730.98 C 518.50 728.55 519.10 725.71 520.64 723.71 Z" />
</g>
<g id="#fefefdff">
</g>
<g id="#303030ff">
<path fill="#303030" opacity="1.00" d=" M 551.23 779.67 C 562.78 780.53 574.35 779.51 585.86 778.36 C 584.10 787.99 583.02 797.72 581.31 807.36 C 578.23 808.16 574.61 808.58 572.51 811.26 C 576.06 811.51 579.71 811.38 583.10 812.64 C 582.35 812.67 580.84 812.75 580.08 812.79 C 586.30 815.91 591.44 820.57 597.05 824.58 C 584.31 827.05 571.12 827.42 558.32 825.16 C 557.36 818.51 555.60 812.00 554.55 805.37 C 553.08 796.85 552.78 788.18 551.23 779.67 Z" />
</g>
<g id="#6d6c6cff">
<path fill="#6d6c6c" opacity="1.00" d=" M 585.86 778.36 C 587.79 778.04 589.72 777.72 591.67 777.41 C 589.42 786.68 586.84 795.87 584.40 805.10 C 584.36 806.87 582.65 806.98 581.31 807.36 C 583.02 797.72 584.10 787.99 585.86 778.36 Z" />
</g>
<g id="#252424ff">
<path fill="#252424" opacity="1.00" d=" M 541.02 778.76 C 544.44 778.81 547.84 779.19 551.23 779.67 C 552.78 788.18 553.08 796.85 554.55 805.37 C 555.60 812.00 557.36 818.51 558.32 825.16 C 555.34 824.90 552.38 824.47 549.51 823.62 C 547.54 816.21 546.50 808.61 545.34 801.04 C 544.24 793.55 542.15 786.25 541.02 778.76 Z" />
</g>
<g id="#252525ff">
<path fill="#252525" opacity="1.00" d=" M 418.19 782.05 C 421.47 782.56 424.74 783.15 428.00 783.81 C 428.22 793.31 427.55 802.85 428.54 812.33 C 428.92 818.61 430.02 824.87 429.45 831.17 C 426.91 830.53 424.40 829.80 421.91 829.02 C 420.09 813.42 418.23 797.78 418.19 782.05 Z" />
</g>
<g id="#302f30ff">
<path fill="#302f30" opacity="1.00" d=" M 428.00 783.81 C 439.71 785.60 451.55 786.02 463.35 786.75 C 460.85 795.26 457.91 803.65 455.52 812.20 C 455.87 812.71 456.57 813.73 456.93 814.25 C 451.63 813.66 446.42 815.30 441.82 817.83 C 446.63 818.16 451.52 818.24 456.15 819.76 C 455.23 819.81 453.38 819.91 452.45 819.96 C 455.73 822.15 459.32 824.03 461.95 827.05 C 463.65 828.97 465.27 830.98 467.10 832.81 C 454.54 834.00 441.81 833.88 429.45 831.17 C 430.02 824.87 428.92 818.61 428.54 812.33 C 427.55 802.85 428.22 793.31 428.00 783.81 Z" />
</g>
<g id="#6c6d6dff">
<path fill="#6c6d6d" opacity="1.00" d=" M 463.49 786.28 C 465.62 786.24 467.75 786.20 469.90 786.15 C 466.13 794.43 463.03 802.99 459.23 811.26 C 458.75 812.45 457.89 813.41 456.93 814.25 C 456.57 813.73 455.87 812.71 455.52 812.20 C 457.91 803.65 460.85 795.26 463.35 786.75 L 463.49 786.28 Z" />
</g>
<g id="#cececfff">
<path fill="#cececf" opacity="1.00" d=" M 467.43 815.95 C 468.47 813.25 469.51 810.55 470.60 807.88 C 470.64 808.47 470.72 809.65 470.76 810.24 C 492.95 808.79 515.21 808.57 537.45 808.88 C 538.47 814.28 539.45 819.68 540.38 825.10 C 540.82 827.64 541.68 830.55 544.32 831.61 C 550.14 834.25 556.68 834.44 562.93 835.20 C 573.31 835.85 583.84 836.38 594.13 834.60 C 598.47 833.81 603.67 832.37 605.51 827.87 C 606.91 823.05 604.67 818.06 601.62 814.39 C 608.85 814.19 615.88 816.21 622.98 817.32 C 634.46 819.88 646.51 821.94 656.55 828.47 C 659.48 830.31 661.96 834.45 659.70 837.71 C 656.39 842.37 650.73 844.48 645.61 846.51 C 630.54 851.78 614.69 854.38 598.90 856.35 C 564.13 860.63 529.03 861.27 494.05 860.54 C 469.62 860.09 445.20 858.34 421.00 854.90 C 412.03 853.64 403.13 851.82 394.37 849.50 C 387.32 847.49 380.13 845.25 374.15 840.89 C 371.88 839.26 369.76 836.57 370.49 833.62 C 371.31 830.15 374.63 828.17 377.53 826.58 C 388.05 821.18 399.86 819.24 411.37 817.16 C 411.88 822.24 412.04 827.37 412.95 832.40 C 413.78 836.19 417.79 837.72 421.10 838.71 C 434.07 842.37 447.68 843.23 461.09 842.49 C 465.04 842.14 469.21 841.87 472.73 839.86 C 476.05 837.87 476.81 833.53 476.26 829.99 C 475.59 824.25 471.84 819.42 467.43 815.95 Z" />
</g>
<g id="#6b6769ff">
<path fill="#6b6769" opacity="1.00" d=" M 452.45 819.96 C 453.38 819.91 455.23 819.81 456.15 819.76 C 462.08 820.75 467.68 826.70 467.10 832.81 C 465.27 830.98 463.65 828.97 461.95 827.05 C 459.32 824.03 455.73 822.15 452.45 819.96 Z" />
</g>
</svg>
